<svg width="91" height="92" viewBox="0 0 91 92" fill="none" xmlns="http://www.w3.org/2000/svg">
<path d="M47.498 59.6803L67.4822 41.0189C68.611 39.9783 68.3465 38.1262 66.9884 37.4207L50.6729 28.9895C49.3147 28.284 47.6567 29.1483 47.4627 30.6652L43.7939 57.7577C43.5117 59.8214 45.9811 61.0913 47.498 59.6803Z" fill="black"/>
<path d="M72.8441 1.59696L52.8598 20.2584C51.7309 21.299 51.9955 23.151 53.3537 23.8566L69.6692 32.2877C71.0273 32.9932 72.6852 32.129 72.8793 30.6121L76.5481 3.51953C76.8303 1.45585 74.361 0.18589 72.8441 1.59696Z" stroke="#7D7D82" stroke-width="1.13" stroke-linecap="round" stroke-linejoin="round"/>
<path d="M77.995 31.9351C84.239 41.5304 84.9975 54.2124 78.8946 64.813C70.3224 79.7174 51.3963 84.9384 36.4037 76.6484L30.7419 88.6248C29.7012 90.8119 27.0201 91.6586 24.9388 90.4415C23.5983 89.6655 22.8575 88.2721 22.8575 86.8434C22.8575 86.032 23.0869 85.2206 23.5984 84.4974L31.3769 73.1912C19.9119 63.5783 16.6312 46.8395 24.3568 33.4167C28.9428 25.4442 36.492 20.2409 44.8173 18.3889" stroke="#7D7D82" stroke-width="1.13" stroke-linecap="round" stroke-linejoin="round"/>
<path d="M75.7556 38.4613C79.0187 45.887 78.8424 54.7062 74.4857 62.2555C67.2187 74.8669 51.1148 79.2236 38.4858 71.9566C25.8567 64.6896 21.5177 48.5857 28.7847 35.9567C32.0654 30.2595 37.1453 26.2556 42.8954 24.2272" stroke="#7D7D82" stroke-width="1.13" stroke-linecap="round" stroke-linejoin="round"/>
<path d="M20.1614 85.6053H9.40206C5.02775 85.6053 1.5 82.06 1.5 77.7033V27.5045C1.5 23.1302 5.04538 19.6025 9.40206 19.6025H22.1546" stroke="#7D7D82" stroke-width="1.13" stroke-linecap="round" stroke-linejoin="round"/>
<path d="M78.7382 19.5847H81.1547C85.529 19.5847 89.0566 23.13 89.0566 27.4867V77.6854C89.0566 82.0597 85.5113 85.5874 81.1547 85.5874H45.5781" stroke="#7D7D82" stroke-width="1.13" stroke-linecap="round" stroke-linejoin="round"/>
</svg>
