<svg width="93" height="90" viewBox="0 0 93 90" fill="none" xmlns="http://www.w3.org/2000/svg">
<path d="M52.6101 68.9151L50.3762 71.4817C50.091 71.8144 50.1543 72.4323 50.5028 72.8759L52.7051 75.6168C53.0695 76.0605 53.6558 76.2664 54.036 76.0446L56.9829 74.4444C58.8682 76.0605 61.0864 77.3279 63.558 78.0884L63.7797 81.3997C63.8114 81.8433 64.2867 82.2394 64.857 82.3028L68.3426 82.683C68.913 82.7464 69.4676 82.4612 69.5943 82.0493L70.5449 78.8648C73.1116 78.6588 75.5514 77.9141 77.7537 76.7417L80.2887 78.944C80.6214 79.2292 81.2393 79.1658 81.6829 78.8172L84.4238 76.615C84.8674 76.2506 85.0734 75.6644 84.8516 75.2841L83.2197 72.2897C84.7882 70.4202 85.9924 68.2179 86.7212 65.778L90.2067 65.5404C90.6503 65.5087 91.0464 65.0334 91.1097 64.463L91.4901 60.9775C91.5534 60.4071 91.2682 59.8526 90.8563 59.7258L87.4499 58.7118C87.2122 56.2402 86.4993 53.8954 85.3744 51.7882L87.7668 49.0473C88.052 48.7146 87.9886 48.0967 87.64 47.6531L85.4378 44.9122C85.0734 44.4685 84.4872 44.2626 84.1069 44.4844L80.859 46.243C79.0529 44.7379 76.9457 43.5654 74.6167 42.8366L74.3631 39.1134C74.3315 38.6698 73.8562 38.2737 73.2858 38.2103L69.8003 37.8301C69.2299 37.7667 68.6754 38.0519 68.5486 38.4638L67.4871 42.0286C65.0631 42.2346 62.7499 42.9159 60.6586 43.9932L57.8701 41.5692C57.5374 41.284 56.9195 41.3473 56.4759 41.6959L53.735 43.8982C53.2914 44.2626 53.0854 44.8488 53.3072 45.229L55.05 48.4294C53.4973 50.2514 52.2773 52.3744 51.5168 54.7351L47.9679 54.9728C47.5243 55.0044 47.1282 55.4798 47.0648 56.0501L46.6846 59.5357C46.6212 60.1061 46.9064 60.6606 47.3184 60.7873L50.6613 61.7855" stroke="#7D7D82" stroke-width="1.13" stroke-linecap="round" stroke-linejoin="round"/>
<path d="M33.615 25.1066C33.615 16.2501 26.1527 9.15219 17.1853 9.72256C9.56455 10.2137 3.3539 16.3927 2.83107 24.0134C2.49835 28.8298 4.36784 33.2026 7.53654 36.2446C9.39023 38.0349 10.6894 40.3164 11.1013 42.8672L11.545 45.6715C11.8143 47.335 13.256 48.5708 14.9513 48.5708H21.4472C23.1424 48.5708 24.5841 47.335 24.8535 45.6715L25.2971 42.8672C25.6932 40.4114 26.834 38.1299 28.656 36.4505C29.8759 35.3098 30.9216 33.9948 31.7296 32.5055" stroke="#7D7D82" stroke-width="1.13" stroke-linecap="round" stroke-linejoin="round"/>
<path d="M22.841 49.3H13.5409C12.8409 49.3 12.2734 49.8675 12.2734 50.5675C12.2734 51.2675 12.8409 51.835 13.5409 51.835H22.841C23.541 51.835 24.1085 51.2675 24.1085 50.5675C24.1085 49.8675 23.541 49.3 22.841 49.3Z" stroke="#7D7D82" stroke-width="1.13" stroke-linecap="round" stroke-linejoin="round"/>
<path d="M22.841 52.7375H13.5409C12.8409 52.7375 12.2734 53.305 12.2734 54.005C12.2734 54.705 12.8409 55.2725 13.5409 55.2725H22.841C23.541 55.2725 24.1085 54.705 24.1085 54.005C24.1085 53.305 23.541 52.7375 22.841 52.7375Z" stroke="#7D7D82" stroke-width="1.13" stroke-linecap="round" stroke-linejoin="round"/>
<path d="M21.7321 56.1604H14.6659C13.9659 56.1604 13.3984 56.7279 13.3984 57.4279C13.3984 58.1279 13.9659 58.6954 14.6659 58.6954H21.7321C22.4321 58.6954 22.9996 58.1279 22.9996 57.4279C22.9996 56.7279 22.4321 56.1604 21.7321 56.1604Z" stroke="#7D7D82" stroke-width="1.13" stroke-linecap="round" stroke-linejoin="round"/>
<path d="M69.8329 31.2862V9.37467C69.8329 7.50514 71.338 6 73.2076 6H73.2551C75.1247 6 76.6298 7.50514 76.6298 9.37467C76.6298 11.2442 75.1247 12.7493 73.2551 12.7493H46.6855" stroke="#7D7D82" stroke-width="1.13" stroke-linecap="round" stroke-linejoin="round"/>
<path d="M8.29692 54.0059V75.9174C8.29692 77.787 6.79178 79.2921 4.92225 79.2921H4.87467C3.00514 79.2921 1.5 77.787 1.5 75.9174C1.5 74.0479 3.00514 72.5428 4.87467 72.5428H31.4443" stroke="#7D7D82" stroke-width="1.13" stroke-linecap="round" stroke-linejoin="round"/>
<path d="M59.1701 65.1438H27.0078" stroke="#7D7D82" stroke-width="1.13" stroke-linecap="round" stroke-linejoin="round"/>
<path d="M59.1701 29.116H27.0078" stroke="#7D7D82" stroke-width="1.13" stroke-linecap="round" stroke-linejoin="round"/>
<path d="M54.2109 24.1565L59.17 29.1155L54.2109 34.0904" stroke="#7D7D82" stroke-width="1.13" stroke-linecap="round" stroke-linejoin="round"/>
<path d="M31.4434 70.1028L26.4844 65.1438L31.4434 60.1848" stroke="#7D7D82" stroke-width="1.13" stroke-linecap="round" stroke-linejoin="round"/>
<path d="M69.0563 68.3128C73.5014 68.3128 77.1049 64.7094 77.1049 60.2643C77.1049 55.8192 73.5014 52.2158 69.0563 52.2158C64.6113 52.2158 61.0078 55.8192 61.0078 60.2643C61.0078 64.7094 64.6113 68.3128 69.0563 68.3128Z" fill="black"/>
</svg>
