<svg width="90" height="91" viewBox="0 0 90 91" fill="none" xmlns="http://www.w3.org/2000/svg">
<path d="M73.5383 74.3903C66.6992 79.882 58.0929 83.1517 48.7268 83.1517C47.2247 83.1517 45.7579 83.0614 44.3088 82.8988C39.0072 82.3026 36.6923 75.7813 40.4034 71.8793L58.6761 52.6947C64.2604 46.8237 67.6711 39.2004 68.2013 31.3603L68.5017 26.9164C68.6431 24.7848 66.8759 23.0325 64.8083 23.2312L60.4787 23.6648C52.8444 24.4235 45.4752 28.1087 39.8732 33.9797L20.381 54.4469C16.882 58.1141 10.7674 56.434 9.61876 51.4482C8.92955 48.4314 8.57617 45.3062 8.57617 42.0726C8.57617 40.6275 8.64685 39.2184 8.78823 37.8094" stroke="#7D7D82" stroke-width="1.13" stroke-linecap="round" stroke-linejoin="round"/>
<path d="M16.707 17.2519C24.2353 7.13567 36.2346 0.686585 49.7006 1.01175C71.4548 1.53562 89.0207 20.0158 88.9147 42.2714C88.8793 47.9979 87.7129 53.4354 85.6276 58.3851" stroke="#7D7D82" stroke-width="1.13" stroke-linecap="round" stroke-linejoin="round"/>
<path d="M18.6108 59.4778L5.32135 73.506C4.54733 74.3231 4.56502 75.6239 5.3608 76.4117C6.15658 77.1994 7.42909 77.1757 8.2031 76.3587L21.4926 62.3305C22.2666 61.5134 22.249 60.2125 21.4532 59.4247C20.6574 58.637 19.3849 58.6608 18.6108 59.4778Z" stroke="#7D7D82" stroke-width="1.13" stroke-linecap="round" stroke-linejoin="round"/>
<path d="M25.0784 65.8798L5.38385 86.6691C4.60983 87.4862 4.62753 88.787 5.42331 89.5748C6.21908 90.3625 7.49159 90.3388 8.2656 89.5218L27.9601 68.7325C28.7342 67.9154 28.7165 66.6145 27.9208 65.8267C27.125 65.039 25.8524 65.0627 25.0784 65.8798Z" stroke="#7D7D82" stroke-width="1.13" stroke-linecap="round" stroke-linejoin="round"/>
<path d="M31.5386 72.2736L18.2492 86.3018C17.4751 87.1189 17.4928 88.4198 18.2885 89.2076C19.0843 89.9953 20.3569 89.9716 21.1309 89.1545L34.4204 75.1263C35.1944 74.3093 35.1768 73.0083 34.381 72.2205C33.5853 71.4328 32.3127 71.4566 31.5386 72.2736Z" stroke="#7D7D82" stroke-width="1.13" stroke-linecap="round" stroke-linejoin="round"/>
<path d="M50.3804 48C53.352 48 55.7609 45.5376 55.7609 42.5C55.7609 39.4624 53.352 37 50.3804 37C47.4089 37 45 39.4624 45 42.5C45 45.5376 47.4089 48 50.3804 48Z" fill="black"/>
<path d="M0.978516 31.3428C0.978516 28.6512 3.09915 26.4834 5.73227 26.4834C8.36539 26.4834 10.486 28.6512 10.486 31.3428" stroke="#7D7D82" stroke-width="1.13" stroke-linecap="round" stroke-linejoin="round"/>
<path d="M10.4863 31.3425C10.4863 28.6509 12.607 26.4832 15.2401 26.4832C17.8732 26.4832 19.9938 28.6509 19.9938 31.3425" stroke="#7D7D82" stroke-width="1.13" stroke-linecap="round" stroke-linejoin="round"/>
<path d="M69.0859 69.0606C69.0859 66.3689 71.2066 64.2012 73.8397 64.2012C76.4728 64.2012 78.5935 66.3689 78.5935 69.0606" stroke="#7D7D82" stroke-width="1.13" stroke-linecap="round" stroke-linejoin="round"/>
<path d="M78.5938 69.0608C78.5938 66.3692 80.7144 64.2014 83.3475 64.2014C85.9806 64.2014 88.1013 66.3692 88.1013 69.0608" stroke="#7D7D82" stroke-width="1.13" stroke-linecap="round" stroke-linejoin="round"/>
</svg>
