<svg width="90" height="91" viewBox="0 0 90 91" fill="none" xmlns="http://www.w3.org/2000/svg">
<path d="M36.0885 8.3965H26.872C25.9537 8.3965 25.4125 7.37974 25.9045 6.62536L29.5616 1.03316C30.4635 -0.344388 32.4807 -0.344388 33.3826 1.03316L37.0397 6.62536C37.5317 7.39614 36.9905 8.3965 36.0722 8.3965H36.0885Z" fill="black"/>
<path d="M45.9778 21.9588V25.501H39.5492C36.1545 25.501 33.3994 28.2561 33.3994 31.6508V82.1938H17V21.9588L24.7569 10.1348H38.2209L45.9778 21.9588Z" stroke="#7D7D82" stroke-width="1.13" stroke-linecap="round" stroke-linejoin="round"/>
<path d="M71.5105 31.6506V53.839H45.9766V25.4844H65.3607C68.7554 25.4844 71.5105 28.2395 71.5105 31.6342V31.6506Z" stroke="#7D7D82" stroke-width="1.13" stroke-linecap="round" stroke-linejoin="round"/>
<path d="M67.7559 57.9229H56.5224C53.9149 64.7614 54.456 73.9615 54.456 73.9615C51.3729 68.4841 51.8814 61.5143 52.4553 57.9229H49.0114C49.0114 57.9229 45.3052 64.0398 46.3875 72.3215C47.4863 80.6197 56.6372 85.6379 58.3919 90.0001C60.1303 85.6379 69.2976 80.6197 70.3963 72.3215C71.4951 64.0234 67.7723 57.9229 67.7723 57.9229H67.7559Z" stroke="#7D7D82" stroke-width="1.13" stroke-linecap="round" stroke-linejoin="round"/>
</svg>
