<svg width="74" height="72" viewBox="0 0 74 72" fill="none" xmlns="http://www.w3.org/2000/svg">
<g id="PRocess icon black">
<path id="Vector" d="M44.9462 43.6339V38.2443C44.9462 33.822 41.3531 30.2289 36.9308 30.2289C32.5086 30.2289 28.9156 33.822 28.9156 38.2443V52.3402C28.9156 55.6569 26.2898 58.2826 22.9731 58.2826C19.6564 58.2826 17.0308 55.6569 17.0308 52.3402V45.2922C17.0308 40.87 13.4377 37.2769 9.01541 37.2769C4.59315 37.2769 1 40.87 1 45.2922V67.2653" stroke="#7D7D82" stroke-width="1.3" stroke-linecap="round" stroke-linejoin="round"></path>
<path id="Vector_2" d="M72.9999 58.1441V50.4052C72.9999 45.9829 69.4068 42.3898 64.9845 42.3898C60.5623 42.3898 56.9691 45.9829 56.9691 50.4052V61.3226C56.9691 64.6393 54.3435 67.265 51.0268 67.265C47.7101 67.265 45.0844 64.6393 45.0844 61.3226V49.576" stroke="#7D7D82" stroke-width="1.3" stroke-linecap="round" stroke-linejoin="round"></path>
<path id="Vector_3" d="M9.01541 32.4401C13.4422 32.4401 17.0308 28.8515 17.0308 24.4247C17.0308 19.998 13.4422 16.4094 9.01541 16.4094C4.58866 16.4094 1 19.998 1 24.4247C1 28.8515 4.58866 32.4401 9.01541 32.4401Z" stroke="#7D7D82" stroke-width="1.3" stroke-linecap="round" stroke-linejoin="round"></path>
<path id="Vector_4" d="M36.9309 20.8307C41.3576 20.8307 44.9463 17.2421 44.9463 12.8154C44.9463 8.38862 41.3576 4.8 36.9309 4.8C32.5041 4.8 28.9156 8.38862 28.9156 12.8154C28.9156 17.2421 32.5041 20.8307 36.9309 20.8307Z" fill="black"></path>
<path id="Vector_5" d="M64.8466 36.8612C69.2734 36.8612 72.8619 33.2725 72.8619 28.8458C72.8619 24.419 69.2734 20.8305 64.8466 20.8305C60.4199 20.8305 56.8312 24.419 56.8312 28.8458C56.8312 33.2725 60.4199 36.8612 64.8466 36.8612Z" stroke="#7D7D82" stroke-width="1.3" stroke-linecap="round" stroke-linejoin="round"></path>
<path id="Vector_6" d="M73 60.4922V64.3616" stroke="#7D7D82" stroke-width="1.3" stroke-linecap="round" stroke-linejoin="round"></path>
</g>
</svg>