<svg width="74" height="74" viewBox="0 0 74 74" fill="none" xmlns="http://www.w3.org/2000/svg">
<path d="M64.1553 25.0403C62.7851 24.542 61.2903 24.1683 59.7955 23.7946L58.7989 18.0645C58.6743 17.3171 57.8023 16.8188 56.9304 16.8188H51.4494C50.5774 16.8188 49.7055 17.3171 49.5809 18.0645L48.5844 23.7946C44.8474 24.542 41.3595 26.0368 38.2453 28.0299L33.5119 24.6666C32.8891 24.2929 32.017 24.4175 31.3942 25.1649L27.5326 29.0265C26.9098 29.6493 26.6606 30.6458 27.0343 31.1441L30.273 35.8777C28.1554 38.9919 26.6606 42.4798 25.7887 46.3414L20.3077 47.3379C19.5603 47.4625 19.062 48.3345 19.062 49.2065V54.6875C19.062 55.5594 19.5603 56.4314 20.3077 56.556L25.6641 57.5525C26.0378 59.5456 26.5361 61.4141 27.2835 63.1581" stroke="#7D7D82" stroke-width="1.3" stroke-linecap="round" stroke-linejoin="round"></path>
<path d="M42.6052 6.97902H60.4183C64.0308 6.97902 67.0203 9.96867 67.0203 13.5811V36.9999" stroke="#7D7D82" stroke-width="1.3" stroke-linecap="round" stroke-linejoin="round"></path>
<path d="M6.97955 33.0137V13.5811C6.97955 9.96867 9.96922 6.97902 13.5817 6.97902H39.8652" stroke="#7D7D82" stroke-width="1.3" stroke-linecap="round" stroke-linejoin="round"></path>
<path d="M33.8861 67.0218H13.5818C9.96934 67.0218 6.97968 64.0321 6.97968 60.4196V37.0009" stroke="#7D7D82" stroke-width="1.3" stroke-linecap="round" stroke-linejoin="round"></path>
<path d="M67.0204 40.2392V60.5437C67.0204 64.1562 64.0309 67.1459 60.4184 67.1459H36.9998" stroke="#7D7D82" stroke-width="1.3" stroke-linecap="round" stroke-linejoin="round"></path>
<path d="M1 42.9801L6.97927 37.0009L12.9585 42.9801" stroke="#7D7D82" stroke-width="1.3" stroke-linecap="round" stroke-linejoin="round"></path>
<path d="M73 31.0204L67.0207 36.9996L61.1661 31.0204" stroke="#7D7D82" stroke-width="1.3" stroke-linecap="round" stroke-linejoin="round"></path>
<path d="M42.9791 72.9998L36.9998 67.0205L42.9791 61.1658" stroke="#7D7D82" stroke-width="1.3" stroke-linecap="round" stroke-linejoin="round"></path>
<path d="M34.0102 1L39.9895 6.97924L34.0102 12.834" stroke="#7D7D82" stroke-width="1.3" stroke-linecap="round" stroke-linejoin="round"></path>
<path d="M59.6711 38.4945V52.0723C59.6711 55.5602 56.8059 58.4253 53.3181 58.4253H39.6157C37.2489 58.4253 35.3804 56.5568 35.2559 54.19C35.2559 53.9408 35.2559 53.8163 35.2559 53.5671C35.2559 42.8543 43.9757 34.1346 54.6884 34.1346C54.9375 34.1346 55.1867 34.1346 55.3112 34.1346C57.8026 34.2591 59.6711 36.1277 59.6711 38.4945Z" fill="black"></path>
</svg>