<svg width="72" height="74" viewBox="0 0 72 74" fill="none" xmlns="http://www.w3.org/2000/svg">
<path d="M53.6766 63.4381H18.6559C13.7023 63.4381 9.67029 59.406 9.67029 54.4524V19.4317C9.67029 14.4781 13.7023 10.4461 18.6559 10.4461H53.6766C58.6302 10.4461 62.6623 14.4781 62.6623 19.4317V54.4524C62.6623 59.406 58.6302 63.4381 53.6766 63.4381Z" stroke="#7D7D82" stroke-width="1.3" stroke-linecap="round" stroke-linejoin="round"></path>
<path d="M22.9184 52.9555C20.1536 52.9555 18.08 50.1907 19.0016 47.5411C21.3056 40.1683 28.2176 34.7539 36.2816 34.7539C44.3456 34.7539 51.2576 40.1683 53.5616 47.5411C54.368 50.1907 52.4095 52.9555 49.6447 52.9555H22.9184Z" stroke="#7D7D82" stroke-width="1.3" stroke-linecap="round" stroke-linejoin="round"></path>
<path d="M36.2815 31.1827C39.3354 31.1827 41.8111 28.7069 41.8111 25.653C41.8111 22.5991 39.3354 20.1234 36.2815 20.1234C33.2276 20.1234 30.752 22.5991 30.752 25.653C30.752 28.7069 33.2276 31.1827 36.2815 31.1827Z" fill="black"></path>
<path d="M59.7825 7.45117V12.9808L71.0721 1" stroke="#7D7D82" stroke-width="1.3" stroke-linecap="round" stroke-linejoin="round"></path>
<path d="M65.4273 12.9805H59.7825" stroke="#7D7D82" stroke-width="1.3" stroke-linecap="round" stroke-linejoin="round"></path>
<path d="M12.2047 7.45117V12.9808L0.800049 1" stroke="#7D7D82" stroke-width="1.3" stroke-linecap="round" stroke-linejoin="round"></path>
<path d="M6.44458 12.9805H12.2046" stroke="#7D7D82" stroke-width="1.3" stroke-linecap="round" stroke-linejoin="round"></path>
<path d="M12.2047 66.664V61.1344L0.800049 73" stroke="#7D7D82" stroke-width="1.3" stroke-linecap="round" stroke-linejoin="round"></path>
<path d="M6.4447 61.1344H12.2047" stroke="#7D7D82" stroke-width="1.3" stroke-linecap="round" stroke-linejoin="round"></path>
<path d="M59.7825 66.664V61.1344L71.0721 73" stroke="#7D7D82" stroke-width="1.3" stroke-linecap="round" stroke-linejoin="round"></path>
<path d="M65.4273 61.1344H59.7825" stroke="#7D7D82" stroke-width="1.3" stroke-linecap="round" stroke-linejoin="round"></path>
</svg>