<svg width="74" height="74" viewBox="0 0 74 74" fill="none" xmlns="http://www.w3.org/2000/svg">
<g id="PRocess icon black">
<path id="Vector" d="M54.7962 1H7.79245C3.98868 1 1 3.98868 1 7.79245V66.2075C1 70.0113 3.98868 73 7.79245 73H66.2075C70.0113 73 73 70.0113 73 66.2075V33.0603H64.7132V61.5886H58.3282V43.249H50.5849V61.7245H44.0641V46.917H35.6415V61.7245H28.1698V49.6339H17.5735V61.7245H9.42258" stroke="#7D7D82" stroke-width="1.3" stroke-linecap="round" stroke-linejoin="round"></path>
<path id="Vector_2" d="M13.4976 47.4601C15.8235 47.4601 17.7091 45.5746 17.7091 43.2488C17.7091 40.9229 15.8235 39.0375 13.4976 39.0375C11.1718 39.0375 9.28632 40.9229 9.28632 43.2488C9.28632 45.5746 11.1718 47.4601 13.4976 47.4601Z" stroke="#7D7D82" stroke-width="1.3" stroke-linecap="round" stroke-linejoin="round"></path>
<path id="Vector_3" d="M35.3695 28.7148C37.6954 28.7148 39.5808 26.8294 39.5808 24.5035C39.5808 22.1777 37.6954 20.2922 35.3695 20.2922C33.0437 20.2922 31.1581 22.1777 31.1581 24.5035C31.1581 26.8294 33.0437 28.7148 35.3695 28.7148Z" stroke="#7D7D82" stroke-width="1.3" stroke-linecap="round" stroke-linejoin="round"></path>
<path id="Vector_4" d="M47.7316 42.3C50.0575 42.3 51.9429 40.4146 51.9429 38.0887C51.9429 35.7629 50.0575 33.8773 47.7316 33.8773C45.4058 33.8773 43.5203 35.7629 43.5203 38.0887C43.5203 40.4146 45.4058 42.3 47.7316 42.3Z" stroke="#7D7D82" stroke-width="1.3" stroke-linecap="round" stroke-linejoin="round"></path>
<path id="Vector_5" d="M67.2941 23.8235C69.6199 23.8235 71.5054 21.9379 71.5054 19.6121C71.5054 17.2862 69.6199 15.4008 67.2941 15.4008C64.9682 15.4008 63.0826 17.2862 63.0826 19.6121C63.0826 21.9379 64.9682 23.8235 67.2941 23.8235Z" fill="black"></path>
<path id="Vector_6" d="M50.7203 35.2346L64.1694 22.4648" stroke="#7D7D82" stroke-width="1.3" stroke-linecap="round" stroke-linejoin="round"></path>
<path id="Vector_7" d="M37.9504 27.7641L47.7316 38.0886" stroke="#7D7D82" stroke-width="1.3" stroke-linecap="round" stroke-linejoin="round"></path>
<path id="Vector_8" d="M14.3129 42.1633L34.8261 24.5029" stroke="#7D7D82" stroke-width="1.3" stroke-linecap="round" stroke-linejoin="round"></path>
</g>
</svg>