<svg width="74" height="72" viewBox="0 0 74 72" fill="none" xmlns="http://www.w3.org/2000/svg">
<g id="PRocess icon black">
<path id="Vector" d="M3.61205 45.9127H2.32795C1.36484 45.9127 1.04372 45.1636 1.57878 44.3075L17.8448 16.8052C18.3799 15.9491 19.557 15.2 20.4131 15.2H71.9933C72.9564 15.2 73.2774 15.9491 72.7423 16.8052L53.0521 50.1932C52.517 51.0493 51.3398 51.7984 50.4837 51.7984H23.3024C22.3393 51.7984 22.0183 51.0493 22.5534 50.1932L36.4651 26.6504C37.0001 25.7943 38.1772 25.0452 39.0333 25.0452H60.6499C61.6131 25.0452 61.934 25.7943 61.399 26.6504L45.3471 53.8316C44.812 54.6877 43.6348 55.4368 42.7787 55.4368H32.9336" stroke="#7D7D82" stroke-width="1.2" stroke-linecap="round" stroke-linejoin="round"></path>
<path id="Vector_2" d="M10.3539 57.0423H2.00681C1.04369 57.0423 0.722707 56.2932 1.25777 55.3301L12.3871 36.4958C12.9222 35.5327 14.0993 34.7836 15.0625 34.7836H23.4094C24.3725 34.7836 24.6936 35.5327 24.1585 36.4958L13.0292 55.3301C12.4941 56.2932 11.317 57.0423 10.3539 57.0423Z" stroke="#7D7D82" stroke-width="1.2" stroke-linecap="round" stroke-linejoin="round"></path>
<path id="Vector_3" d="M53.908 33.6066H36.679L38.0702 31.1453H55.2992L53.908 33.6066Z" fill="black"></path>
<path id="Vector_4" d="M22.2324 29.7539H15.2766L17.738 25.4734H24.6938L22.2324 29.7539Z" fill="black"></path>
<path id="Vector_5" d="M19.1289 23.1187H32.0774" stroke="#7D7D82" stroke-width="1.2" stroke-linecap="round" stroke-linejoin="round"></path>
<path id="Vector_6" d="M35.2878 35.8531H48.0224" stroke="#7D7D82" stroke-width="1.2" stroke-linecap="round" stroke-linejoin="round"></path>
<path id="Vector_7" d="M34.0035 38.1008H42.1365" stroke="#7D7D82" stroke-width="1.2" stroke-linecap="round" stroke-linejoin="round"></path>
<path id="Vector_8" d="M13.457 38.6359H19.5567" stroke="#7D7D82" stroke-width="1.2" stroke-linecap="round" stroke-linejoin="round"></path>
<path id="Vector_9" d="M12.3871 40.4547H16.8816" stroke="#7D7D82" stroke-width="1.2" stroke-linecap="round" stroke-linejoin="round"></path>
<path id="Vector_10" d="M5.85938 55.3297H8.10675" stroke="#7D7D82" stroke-width="1.2" stroke-linecap="round" stroke-linejoin="round"></path>
</g>
</svg>