<svg width="38" height="43" viewBox="0 0 38 43" fill="none" xmlns="http://www.w3.org/2000/svg">
<path d="M21.0962 28.6601C25.0682 28.6601 28.2882 25.4402 28.2882 21.4682C28.2882 17.4962 25.0682 14.2762 21.0962 14.2762C17.1242 14.2762 13.9043 17.4962 13.9043 21.4682C13.9043 25.4402 17.1242 28.6601 21.0962 28.6601Z" fill="black"/>
<path d="M29.6386 30.3905C27.4756 32.3372 24.6097 33.4187 21.4733 33.4187C19.88 33.4638 18.2943 33.1823 16.8139 32.5916C15.3334 32.0009 13.9895 31.1134 12.865 29.9837C11.7404 28.8541 10.8589 27.5063 10.2749 26.0232C9.69079 24.5401 9.41647 22.9531 9.46876 21.36C9.46876 14.3844 14.3896 9.51766 21.4733 9.51766C24.5556 9.51766 27.4756 10.5451 29.6927 12.4918L31.2068 13.7896L37.912 7.08429L36.2357 5.5702C32.1751 1.94845 26.9143 -0.0364084 21.4733 0.000505788C9.03616 0.000505788 0.00569785 8.97691 0.00569785 21.3059C-0.0603832 24.1482 0.448905 26.9745 1.50298 29.615C2.55706 32.2554 4.13414 34.6555 6.13943 36.6709C8.14472 38.6863 10.5368 40.2754 13.1719 41.3427C15.807 42.41 18.6308 42.9335 21.4733 42.8817C27.1512 42.8817 32.4505 40.881 36.3439 37.258L37.9661 35.7439L31.1527 29.0386L29.6386 30.3905Z" fill="black"/>
</svg>
