<svg width="60" height="37" viewBox="0 0 60 37" fill="none" xmlns="http://www.w3.org/2000/svg">
<path d="M46.3013 22.1976C44.5538 22.1012 42.8552 21.5908 41.3483 20.7091C39.8414 19.8274 38.5702 18.6004 37.6416 17.131C38.7617 8.2893 42.0216 5.54076 46.3347 5.54076C50.6479 5.54076 53.9245 8.85226 53.9245 13.8195C53.9245 18.7868 50.581 22.0983 46.3347 22.0983M46.3347 0.0105563C43.2909 -0.111606 40.3006 0.829676 37.8864 2.66985C35.4723 4.51003 33.788 7.13204 33.1279 10.0775C31.6969 7.10806 30.6143 3.9859 29.9014 0.772201H19.2523V13.8526C19.2523 18.6046 17.079 22.1314 12.816 22.1314C8.55304 22.1314 6.12899 18.6212 6.12899 13.8526V0.772201H0.0103596V13.8526C-0.128504 17.4774 1.13294 21.0182 3.53777 23.754C4.71157 25.0198 6.14545 26.022 7.74296 26.6932C9.34047 27.3643 11.0646 27.6889 12.7993 27.645C20.1717 27.645 25.3375 22.032 25.3375 14.0016V5.15994C26.5895 9.91774 28.6593 14.4265 31.4561 18.4887L28.1795 37H34.3984L36.555 23.8865C37.2689 24.4952 38.029 25.0488 38.8286 25.5422C40.9061 26.8417 43.2941 27.573 45.7496 27.6616H46.318C48.1447 27.6804 49.9563 27.3329 51.6438 26.6402C53.3314 25.9474 54.8599 24.9236 56.1375 23.6304C57.4151 22.3372 58.4153 20.8013 59.0779 19.1153C59.7404 17.4292 60.0517 15.6278 59.993 13.8195C60.0356 12.0178 59.7121 10.2261 59.0417 8.55067C58.3713 6.87529 57.3676 5.3505 56.0904 4.06694C54.8131 2.78338 53.2883 1.76725 51.6067 1.07894C49.925 0.390633 48.1208 0.0441981 46.3013 0.0602291" fill="black"/>
</svg>
