<svg width="44" height="44" viewBox="0 0 44 44" fill="none" xmlns="http://www.w3.org/2000/svg">
<g clip-path="url(#clip0_1655_18403)">
<mask id="mask0_1655_18403" style="mask-type:luminance" maskUnits="userSpaceOnUse" x="0" y="0" width="44" height="44">
<path d="M44 0H0V44H44V0Z" fill="white"/>
</mask>
<g mask="url(#mask0_1655_18403)">
<path fill-rule="evenodd" clip-rule="evenodd" d="M22 0C9.85466 0 0 9.85466 0 22C0 34.1453 9.85466 44 22 44C34.1215 44 44 34.1453 44 22C44 9.85466 34.1215 0 22 0ZM36.5314 10.141C39.1562 13.3384 40.731 17.4187 40.7788 21.833C40.1584 21.7137 33.9545 20.449 27.7028 21.2364C27.5597 20.9263 27.4403 20.5922 27.2972 20.2581C26.9154 19.3514 26.4859 18.4208 26.0564 17.538C32.9762 14.7223 36.1258 10.6659 36.5314 10.141ZM22 3.24512C26.7722 3.24512 31.1389 5.0347 34.4555 7.96962C34.1215 8.44683 31.282 12.2408 24.6009 14.7462C21.5228 9.09112 18.1106 4.46204 17.5857 3.7462C18.9935 3.41215 20.4729 3.24512 22 3.24512ZM14.0065 5.01085C14.5076 5.67895 17.8482 10.3319 20.974 15.8677C12.1931 18.206 4.43819 18.1584 3.60304 18.1584C4.81994 12.3363 8.75706 7.49242 14.0065 5.01085ZM3.1974 22.0238C3.1974 21.833 3.1974 21.6421 3.1974 21.4512C4.00868 21.4751 13.1236 21.5944 22.5011 18.7788C23.0499 19.8286 23.551 20.9024 24.0282 21.9762C23.7896 22.0477 23.5271 22.1193 23.2885 22.1909C13.6009 25.3167 8.44683 33.859 8.01736 34.5749C5.0347 31.2582 3.1974 26.8438 3.1974 22.0238ZM22 40.8026C17.6573 40.8026 13.6486 39.3232 10.4751 36.8416C10.8091 36.1497 14.6269 28.8004 25.2212 25.1019C25.269 25.0781 25.2928 25.0781 25.3405 25.0542C27.9891 31.9024 29.0629 37.6529 29.3492 39.2994C27.0824 40.2777 24.6009 40.8026 22 40.8026ZM32.4751 37.5813C32.2841 36.436 31.282 30.9479 28.8243 24.1953C34.718 23.2646 39.872 24.7918 40.5163 25.0065C39.705 30.2321 36.6984 34.7419 32.4751 37.5813Z" fill="black"/>
</g>
</g>
<defs>
<clipPath id="clip0_1655_18403">
<rect width="44" height="44" fill="white"/>
</clipPath>
</defs>
</svg>
