<svg width="67" height="42" viewBox="0 0 67 42" fill="none" xmlns="http://www.w3.org/2000/svg">
<path d="M26.7637 18.7767C26.7637 18.7767 33.0397 18.3108 33.0397 10.9513C33.0397 3.59187 27.9052 0 21.4012 0H0V41.1279H21.4012C21.4012 41.1279 34.4664 41.5407 34.4664 28.9886C34.4664 28.9886 35.0359 18.7767 26.7637 18.7767ZM19.8618 7.30974H21.402C21.402 7.30974 24.3116 7.30974 24.3116 11.5888C24.3116 15.8679 22.6007 16.488 20.6601 16.488H9.43021V7.30974H19.8618ZM20.7977 33.8181H9.42939V22.827H21.4012C21.4012 22.827 25.7366 22.7706 25.7366 28.4755C25.7366 33.2859 22.4987 33.7817 20.796 33.8181H20.7977ZM51.8919 10.4639C36.0754 10.4639 36.0895 26.2663 36.0895 26.2663C36.0895 26.2663 35.0035 41.9883 51.8919 41.9883C51.8919 41.9883 65.9642 42.7924 65.9642 31.0519H58.7275C58.7275 31.0519 58.9679 35.4727 52.1331 35.4727C52.1331 35.4727 44.8938 35.9577 44.8938 28.3172H66.2063C66.2063 28.3172 68.5382 10.4639 51.8919 10.4639ZM44.8134 22.827C44.8134 22.827 45.6971 16.488 52.0502 16.488C58.4033 16.488 58.3238 22.827 58.3238 22.827H44.8134ZM60.0098 7.48714H43.0411V2.42221H60.0098V7.48714Z" fill="#151515"/>
</svg>
