<svg width="51" height="54" viewBox="0 0 51 54" fill="none" xmlns="http://www.w3.org/2000/svg">
<g clip-path="url(#clip0_1976_31576)">
<path d="M32.499 31.53C32.4431 25.5577 32.0342 19.6025 31.2699 13.6729C30.852 10.4308 30.3447 7.19725 29.8509 3.96369C29.7458 3.27901 29.538 2.62633 29.8263 1.92458C30.1615 1.10766 30.7514 0.587222 31.6274 0.418719C32.242 0.301407 32.8833 0.267279 33.5135 0.254481C38.2019 0.162764 42.8925 0.0859781 47.5809 0.00492585C47.8781 0.000659938 48.1775 -0.00360597 48.4747 0.00492585C50.1619 0.0539838 51.248 1.20791 50.9508 2.7991C50.3251 6.15637 49.648 9.50297 48.9284 12.8432C48.4256 15.1724 47.8624 17.4909 47.2479 19.7945C46.5663 22.3562 45.84 24.9093 45.0512 27.4454C44.2646 29.9793 43.4288 32.5026 42.5238 35.0024C40.6377 40.2111 38.4187 45.2875 35.6298 50.123C34.9772 51.2534 34.2487 52.3476 33.4755 53.4056C33.0778 53.9495 32.4096 54.1372 31.7213 53.8961C31.0732 53.6701 30.8051 53.1368 30.7492 52.5161C30.7202 52.1834 30.7336 51.84 30.785 51.5072C31.2386 48.5382 31.7883 45.5819 32.1392 42.6022C32.3917 40.4713 32.4163 38.3128 32.4856 36.1649C32.537 34.6206 32.4945 33.0742 32.4945 31.5279L32.499 31.53Z" fill="black"/>
<path d="M8.68992 0.209261C12.0688 0.138874 15.3448 0.0578215 18.6209 0.00449769C20.5762 -0.0274966 21.6489 1.24161 21.2779 3.07169C20.6768 6.05356 20.1829 9.05889 19.4723 12.0173C18.3862 16.552 17.1951 21.0632 15.975 25.5658C14.7817 29.9682 13.2219 34.2661 11.5347 38.5171C10.2028 41.8723 8.72121 45.1698 6.96698 48.3436C6.13344 49.8495 5.2351 51.3234 4.34346 52.7994C4.17139 53.0831 3.90993 53.3305 3.65071 53.5544C3.17472 53.9661 2.60487 54.1261 1.99927 53.8637C1.40261 53.6056 1.07635 53.0852 1.09869 52.4944C1.12998 51.6838 1.29311 50.8776 1.42272 50.0735C1.66407 48.5633 1.95458 47.0617 2.16911 45.5495C2.83728 40.8186 2.99147 36.0578 2.90879 31.2949C2.85739 28.3131 2.73002 25.3227 2.45068 22.3536C1.99704 17.5438 1.41155 12.7425 0.835001 7.94335C0.645053 6.3543 0.321024 4.78231 0.041688 3.20819C-0.215301 1.75779 0.736675 0.495077 2.3233 0.373499C3.89876 0.254053 5.48315 0.254053 7.06307 0.211394C7.63962 0.196464 8.2184 0.209261 8.68992 0.209261Z" fill="black"/>
</g>
<defs>
<clipPath id="clip0_1976_31576">
<rect width="51" height="54" fill="white"/>
</clipPath>
</defs>
</svg>
