<svg width="240" height="108" viewBox="0 0 240 108" fill="none" xmlns="http://www.w3.org/2000/svg">
<g clip-path="url(#clip0_5380_1496)">
<g clip-path="url(#clip1_5380_1496)">
<path d="M162.843 67.6161C162.923 67.419 163.03 67.2711 163.189 67.1232C163.323 66.9754 163.509 66.8769 163.696 66.8029C163.882 66.729 164.122 66.6797 164.335 66.6797C164.628 66.6797 164.895 66.729 165.108 66.8522C165.321 66.9754 165.481 67.0986 165.588 67.2218L165.321 67.4436C165.241 67.345 165.135 67.2465 164.975 67.1725C164.815 67.0739 164.602 67.0247 164.362 67.0247C164.175 67.0247 163.989 67.0493 163.856 67.1232C163.696 67.1972 163.563 67.2711 163.456 67.3697C163.349 67.4683 163.269 67.6161 163.216 67.7394C163.163 67.8872 163.136 68.035 163.136 68.2075C163.136 68.38 163.163 68.5279 163.216 68.6758C163.269 68.8236 163.349 68.9468 163.456 69.0454C163.563 69.1439 163.696 69.2425 163.856 69.2918C164.016 69.3657 164.175 69.3904 164.362 69.3904C164.602 69.3904 164.815 69.3411 165.002 69.2425C165.161 69.1439 165.295 69.0454 165.401 68.9221L165.668 69.1439C165.614 69.2179 165.534 69.2918 165.455 69.3411C165.375 69.415 165.268 69.4643 165.161 69.5383C165.055 69.5876 164.922 69.6368 164.788 69.6861C164.655 69.7108 164.495 69.7354 164.362 69.7354C164.122 69.7354 163.909 69.6861 163.722 69.6122C163.536 69.5383 163.349 69.415 163.216 69.2918C163.083 69.1439 162.95 68.9961 162.87 68.799C162.79 68.6018 162.736 68.4047 162.736 68.2075C162.71 67.9857 162.763 67.7887 162.843 67.6161Z" fill="#414140"/>
<path d="M163.193 69.2923C163.326 69.4401 163.513 69.5387 163.699 69.6127C163.886 69.6866 164.126 69.7359 164.339 69.7359C164.499 69.7359 164.632 69.7112 164.765 69.6866C164.898 69.6619 165.032 69.6127 165.138 69.5387C165.245 69.4894 165.351 69.4155 165.431 69.3416C165.511 69.2676 165.591 69.1937 165.645 69.1444L165.378 68.9227C165.271 69.0459 165.138 69.1444 164.978 69.243C164.818 69.3416 164.605 69.3908 164.339 69.3908C164.152 69.3908 163.966 69.3662 163.832 69.2923C163.672 69.243 163.539 69.1444 163.433 69.0458C163.326 68.9473 163.246 68.7995 163.193 68.6762C163.139 68.5284 163.113 68.3805 163.113 68.208C163.113 68.0602 163.139 67.8877 163.193 67.7398C163.246 67.592 163.326 67.4687 163.433 67.3701C163.539 67.2716 163.672 67.1731 163.832 67.0991C163.992 67.0252 164.152 67.0006 164.339 67.0006C164.579 67.0006 164.792 67.0499 164.952 67.1484C165.111 67.247 165.245 67.3455 165.298 67.4194L165.564 67.1977C165.458 67.0745 165.298 66.9513 165.085 66.8281C164.872 66.7048 164.605 66.6555 164.312 66.6555C164.072 66.6555 163.859 66.7048 163.673 66.7788C163.486 66.8527 163.299 66.9759 163.166 67.0991C163.033 67.247 162.9 67.3948 162.82 67.592C162.74 67.7891 162.687 67.9863 162.687 68.1833C162.687 68.4051 162.74 68.6023 162.82 68.7748C162.926 68.9966 163.033 69.1444 163.193 69.2923Z" fill="#414140"/>
<path d="M166.15 66.4333C166.39 66.6551 166.576 66.9262 166.71 67.2219C166.843 67.5176 166.896 67.838 166.896 68.1829C166.896 68.528 166.843 68.8483 166.71 69.144C166.576 69.4397 166.39 69.7108 166.15 69.9326C165.91 70.1544 165.644 70.3515 165.297 70.4747C164.951 70.598 164.631 70.6719 164.231 70.6719C163.858 70.6719 163.485 70.598 163.165 70.4747C162.846 70.3515 162.552 70.1544 162.313 69.9326C162.073 69.7108 161.886 69.4397 161.753 69.144C161.62 68.8483 161.566 68.528 161.566 68.1829C161.566 67.838 161.62 67.5423 161.753 67.2219C161.78 67.1726 161.806 67.1233 161.833 67.0987L161.407 67.1972C161.273 67.5176 161.193 67.838 161.193 68.1829C161.193 68.5773 161.273 68.9222 161.433 69.2672C161.593 69.6123 161.806 69.9079 162.073 70.1544C162.339 70.4008 162.659 70.598 163.032 70.7457C163.405 70.8936 163.778 70.9675 164.205 70.9675C164.604 70.9675 165.004 70.8936 165.377 70.7457C165.75 70.598 166.07 70.4008 166.336 70.1544C166.603 69.9079 166.816 69.6123 166.976 69.2672C167.136 68.9222 167.216 68.5526 167.216 68.1829C167.216 67.8134 167.136 67.4437 166.976 67.0987C166.816 66.7537 166.603 66.458 166.336 66.2115C166.283 66.1623 166.203 66.0884 166.123 66.0391L165.724 66.1376C165.91 66.2362 166.043 66.3348 166.15 66.4333Z" fill="#414140"/>
<path d="M86.5527 37.0598L71.2832 41.2737V70.4257H79.2244V58.6713H81.7027C89.2175 58.6713 97.3453 55.2706 97.3453 47.114C97.3453 40.633 92.6019 37.8237 86.5527 37.0598ZM81.8093 55.1228H79.2244V40.4112H81.6494C86.2063 40.4112 89.0043 42.8508 89.0043 47.7054C89.0043 52.0671 87.0324 55.1228 81.8093 55.1228Z" fill="#414140"/>
<path d="M109.922 45.6357C102.567 45.6357 97.2109 51.205 97.2109 58.6716C97.2109 66.0151 103.02 70.8944 109.922 70.8944C116.051 70.8944 120.182 67.7401 120.608 63.0333C119.009 64.5119 116.318 65.4237 113.307 65.4237C109.789 65.4237 105.632 63.6495 104.379 58.8934L120.608 54.4332C120.661 54.1374 120.661 53.9649 120.661 53.7678C120.661 49.9975 117.171 45.6357 109.922 45.6357ZM113.386 55.1231H103.953C104.166 51.1064 106.485 48.9379 109.149 48.9379C111.521 48.9379 113.6 50.515 113.386 55.1231Z" fill="#414140"/>
<path d="M135.692 45.6357C128.337 45.6357 122.98 51.205 122.98 58.6716C122.98 66.0151 128.79 70.8944 135.692 70.8944C141.821 70.8944 145.951 67.7401 146.378 63.0333C144.779 64.5119 142.087 65.4237 139.076 65.4237C135.558 65.4237 131.401 63.6495 130.149 58.8934L146.378 54.4332C146.431 54.1374 146.431 53.9649 146.431 53.7678C146.431 49.9975 142.94 45.6357 135.692 45.6357ZM139.156 55.1231H129.723C129.936 51.1064 132.254 48.9379 134.919 48.9379C137.291 48.9379 139.369 50.515 139.156 55.1231Z" fill="#414140"/>
<path d="M150.506 70.4255H157.728V36L150.506 37.7496V70.4255Z" fill="#414140"/>
</g>
</g>
<defs>
<clipPath id="clip0_5380_1496">
<rect width="173.577" height="36" fill="white" transform="translate(32.3594 36)"/>
</clipPath>
<clipPath id="clip1_5380_1496">
<rect width="95.934" height="35.7848" fill="white" transform="translate(71.2832 36)"/>
</clipPath>
</defs>
</svg>
