<svg width="240" height="108" viewBox="0 0 240 108" fill="none" xmlns="http://www.w3.org/2000/svg">
<g clip-path="url(#clip0_5367_10500)">
<path d="M176.684 31.3758C183.472 25.1508 199.855 24.313 208.439 24.313C210.506 24.313 212.153 24.313 213.06 24.4069V39.4643C211.354 39.3625 207.524 39.1667 202.911 39.3233C194.641 39.5896 187.92 40.7484 182.805 42.7608C176.8 41.2104 173.933 39.5974 173.702 37.9217C173.472 36.2461 173.859 33.991 176.684 31.3758Z" fill="#414140"/>
<path d="M213.05 71.8967C213.05 71.8967 213.05 72.4056 210.982 72.8755C209.294 73.2435 206.847 73.5097 204.014 73.7994C195.068 74.7234 181.839 76.1093 173.668 83.5792C174.105 72.805 177.803 65.75 185.043 62.0621C185.126 62.0072 185.208 61.9681 185.299 61.9368C190.562 59.3293 196.674 58.7734 202.144 58.3662C206.674 57.9904 210.719 57.6459 212.959 55.9702L213.042 71.8889L213.05 71.8967Z" fill="#414140"/>
<path d="M202.137 56.6044C196.964 57.035 190.448 57.5753 184.938 60.1984C182.022 59.4702 174.765 57.6144 173.76 55.8683V40.9363C175.448 42.2517 178.414 43.4028 182.755 44.499L182.985 44.5538C186.585 45.4621 190.753 46.2373 194.797 46.9968C199.74 47.9364 204.361 49.0326 207.927 49.8548C212.252 50.9119 213.1 52.2038 213.1 52.7989C213.051 55.3359 208.652 56.0641 202.137 56.6044Z" fill="#414140"/>
<path d="M33.2835 33.7251C33.2835 33.2004 33.4729 32.7463 33.8436 32.3626C34.2143 31.9789 34.6591 31.791 35.178 31.791C35.6969 31.791 36.1418 31.9789 36.5124 32.3626C36.8831 32.7463 37.0726 33.2004 37.0726 33.7251C37.0726 34.2497 36.8831 34.7038 36.5124 35.0875C36.1418 35.4712 35.6969 35.6591 35.178 35.6591C34.6591 35.6591 34.2143 35.4712 33.8436 35.0875C33.4729 34.7038 33.2835 34.2497 33.2835 33.7251ZM30.5323 43.544C30.5323 43.7633 30.557 43.9904 30.6146 44.2331C30.664 44.4758 30.7629 44.6951 30.9112 44.883C31.0512 45.0709 31.2489 45.2275 31.4878 45.3528C31.7266 45.4781 32.0314 45.5407 32.4103 45.5407C32.641 45.5407 32.8798 45.5329 33.1187 45.5172C33.3576 45.5016 33.6047 45.4468 33.8518 45.3528V41.6178H32.5174C31.8584 41.6178 31.3642 41.7901 31.0347 42.1424C30.7052 42.4948 30.5405 42.9568 30.5405 43.5362L30.5323 43.544ZM28.926 33.7251C28.926 33.2004 29.1155 32.7463 29.4861 32.3626C29.8568 31.9789 30.3016 31.791 30.8206 31.791C31.3395 31.791 31.7843 31.9789 32.155 32.3626C32.5256 32.7463 32.7151 33.2004 32.7151 33.7251C32.7151 34.2497 32.5256 34.7038 32.155 35.0875C31.7843 35.4712 31.3395 35.6591 30.8206 35.6591C30.3016 35.6591 29.8568 35.4712 29.4861 35.0875C29.1155 34.7038 28.926 34.2497 28.926 33.7251ZM37.9786 50.6381C37.5503 50.6381 37.1384 50.6068 36.7348 50.5442C36.3312 50.4815 35.9605 50.3641 35.6228 50.2075C35.2851 50.043 34.9886 49.8238 34.725 49.5419C34.4696 49.26 34.2637 48.892 34.1237 48.4379C33.8189 48.5083 33.5059 48.571 33.1846 48.618C32.8634 48.6649 32.5421 48.6884 32.2209 48.6884C31.7761 48.6884 31.2571 48.618 30.6723 48.4848C30.0874 48.3517 29.5273 48.1012 29.0001 47.7332C28.473 47.373 28.0282 46.864 27.6657 46.2219C27.3033 45.5799 27.1221 44.7499 27.1221 43.732C27.1221 42.714 27.2951 41.8919 27.641 41.2028C27.987 40.5138 28.4318 39.95 28.9754 39.5115C29.5191 39.073 30.1204 38.7598 30.7958 38.5719C31.4631 38.384 32.122 38.2822 32.7563 38.2822H37.295V46.4255C37.295 46.8405 37.3444 47.1302 37.4515 47.2868C37.5585 47.4434 37.8057 47.5217 38.201 47.5217H38.8435C38.9836 47.5217 39.1154 47.5374 39.2472 47.5609C39.3707 47.5844 39.486 47.6549 39.5849 47.7488C39.6837 47.8506 39.7579 47.9994 39.8155 48.1951C39.8649 48.3987 39.8979 48.6649 39.8979 49.0095C39.8979 49.628 39.8155 50.0509 39.6425 50.2858C39.4696 50.5207 39.2142 50.6381 38.8518 50.6381H37.9704H37.9786Z" fill="#414140"/>
<path d="M43.9094 55.2109C43.9094 54.6863 44.0989 54.2322 44.4695 53.8485C44.8402 53.4648 45.285 53.2769 45.8039 53.2769C46.3229 53.2769 46.7677 53.4648 47.1384 53.8485C47.509 54.2322 47.6985 54.6863 47.6985 55.2109C47.6985 55.7355 47.509 56.1897 47.1384 56.5734C46.7677 56.957 46.3229 57.145 45.8039 57.145C45.285 57.145 44.8402 56.957 44.4695 56.5734C44.0989 56.1897 43.9094 55.7355 43.9094 55.2109ZM39.5519 55.2109C39.5519 54.6863 39.7414 54.2322 40.1121 53.8485C40.4827 53.4648 40.9275 53.2769 41.4465 53.2769C41.9654 53.2769 42.4102 53.4648 42.7809 53.8485C43.1516 54.2322 43.341 54.6863 43.341 55.2109C43.341 55.7355 43.1516 56.1897 42.7809 56.5734C42.4102 56.957 41.9654 57.145 41.4465 57.145C40.9275 57.145 40.4827 56.957 40.1121 56.5734C39.7414 56.1897 39.5519 55.7355 39.5519 55.2109ZM48.4234 50.6381C48.1762 50.6381 47.9044 50.6225 47.6244 50.5833C47.3361 50.5442 47.0642 50.4815 46.7924 50.3797C46.5288 50.2779 46.2735 50.137 46.0346 49.9569C45.7957 49.7768 45.598 49.5419 45.4333 49.2522C45.2191 49.5576 44.9638 49.8081 44.659 50.0039C44.3542 50.1918 44.033 50.3328 43.6952 50.4267C43.3575 50.5207 43.0033 50.5755 42.6409 50.6068C42.2784 50.6303 41.916 50.646 41.5618 50.646H38.86C38.72 50.646 38.5882 50.6303 38.4564 50.6068C38.3328 50.5833 38.2175 50.5128 38.1187 50.4189C38.0198 50.3171 37.9457 50.1683 37.888 49.9726C37.8386 49.7768 37.8057 49.5028 37.8057 49.1582C37.8057 48.5397 37.888 48.1168 38.061 47.8819C38.234 47.647 38.4893 47.5296 38.8518 47.5296H40.9852C41.5865 47.5296 42.0149 47.4356 42.2537 47.2399C42.4926 47.0519 42.6162 46.6213 42.6162 45.9479V39.8169H46.0922V45.6425C46.0922 46.3159 46.2652 46.7935 46.6112 47.0833C46.9571 47.373 47.5585 47.5217 48.4151 47.5217C48.5552 47.5217 48.6869 47.5374 48.8187 47.5609C48.9423 47.5844 49.0576 47.6549 49.1565 47.7488C49.2553 47.8506 49.3294 47.9994 49.3871 48.1951C49.4365 48.3987 49.4695 48.6649 49.4695 49.0095C49.4695 49.628 49.3871 50.0509 49.2141 50.2858C49.0411 50.5207 48.7858 50.6381 48.4234 50.6381Z" fill="#414140"/>
<path d="M51.496 47.4981V31.188H54.972V50.6302H48.4235C48.2835 50.6302 48.1517 50.6145 48.0199 50.591C47.8963 50.5675 47.781 50.4971 47.6822 50.4031C47.5833 50.3013 47.5092 50.1526 47.4515 49.9568C47.4021 49.761 47.3691 49.487 47.3691 49.1425C47.3691 48.5239 47.4515 48.1011 47.6245 47.8662C47.7975 47.6313 48.0528 47.5138 48.4153 47.5138H51.4877L51.496 47.4981Z" fill="#414140"/>
<path d="M64.5108 49.0015C64.5108 49.6201 64.4285 50.0429 64.2555 50.2778C64.0825 50.5127 63.8271 50.6302 63.4647 50.6302H62.3445C61.7349 50.6302 61.183 50.5597 60.6723 50.4266C60.1616 50.2935 59.725 50.0664 59.3626 49.7454C59.0002 49.4244 58.7119 49.0094 58.5059 48.4769C58.3 47.9523 58.2012 47.2946 58.2012 46.5194V31.188H61.6773V46.0261C61.6773 46.6603 61.7843 47.0675 62.015 47.2397C62.2374 47.412 62.5504 47.4981 62.9622 47.4981H63.473C63.613 47.4981 63.753 47.5138 63.8766 47.5373C64.0001 47.5608 64.1154 47.6313 64.2143 47.7252C64.3131 47.827 64.3873 47.9758 64.4449 48.1715C64.4944 48.3751 64.5273 48.6413 64.5273 48.9859L64.5108 49.0015Z" fill="#414140"/>
<path d="M63.4401 50.6303C63.3001 50.6303 63.16 50.6146 63.0365 50.5912C62.9129 50.5677 62.7976 50.4972 62.6988 50.4032C62.5999 50.3014 62.5258 50.1527 62.4681 49.9569C62.4187 49.7612 62.3857 49.4871 62.3857 49.1426C62.3857 48.524 62.4681 48.1012 62.6411 47.8663C62.8141 47.6314 63.0694 47.5139 63.4319 47.5139H67.3857C67.5257 47.5139 67.6575 47.5296 67.7893 47.5531C67.9129 47.5766 68.0282 47.647 68.127 47.741C68.2259 47.8428 68.3 47.9916 68.3577 48.1873C68.4071 48.3909 68.4401 48.6571 68.4401 49.0016C68.4401 49.6202 68.3577 50.043 68.1847 50.278C68.0117 50.5129 67.7564 50.6303 67.3939 50.6303H63.4401Z" fill="#414140"/>
<path d="M77.5991 45.5717C77.5991 45.2977 77.5661 45.0236 77.5084 44.7574C77.4425 44.4833 77.3519 44.2484 77.2119 44.037C77.0801 43.8256 76.8989 43.6534 76.6765 43.5202C76.4541 43.3871 76.1823 43.3167 75.861 43.3167C75.3997 43.3167 74.9137 43.5672 74.4195 44.0762C73.917 44.5851 73.5299 45.4856 73.2416 46.7697C73.6864 47.0438 74.1065 47.263 74.5101 47.4353C74.9137 47.6076 75.3421 47.6937 75.8034 47.6937C76.3717 47.6937 76.8165 47.4979 77.1295 47.1064C77.4425 46.7149 77.5991 46.206 77.5991 45.5639V45.5717ZM68.7853 47.5058C68.9995 47.5058 69.2631 47.3257 69.5761 46.9577C69.8891 46.5975 70.1691 46.065 70.4163 45.376C70.8116 44.3424 71.2317 43.4811 71.6848 42.7999C72.1378 42.1186 72.6156 41.5705 73.1098 41.1634C73.6123 40.7562 74.1065 40.4665 74.609 40.3021C75.1032 40.1376 75.5974 40.0593 76.0752 40.0593C76.7671 40.0593 77.4178 40.1924 78.0274 40.4665C78.6287 40.7405 79.1559 41.1164 79.5924 41.6097C80.029 42.103 80.375 42.6902 80.6221 43.3793C80.8692 44.0684 80.9928 44.82 80.9928 45.6422C80.9928 45.7675 80.9928 45.8849 80.9763 45.9946C80.9681 46.1042 80.9598 46.2138 80.9598 46.3234C81.1905 46.7619 81.5447 47.0673 82.0306 47.2396C82.5084 47.4118 82.9697 47.4979 83.3898 47.4979C83.5298 47.4979 83.6616 47.5136 83.7934 47.5371C83.917 47.5606 84.0323 47.6311 84.1311 47.725C84.23 47.8268 84.3041 47.9756 84.3618 48.1713C84.4112 48.3749 84.4441 48.6411 84.4441 48.9857C84.4441 49.6042 84.3618 50.0271 84.1888 50.262C84.0158 50.4969 83.7604 50.6143 83.398 50.6143C82.7226 50.6143 82.113 50.4812 81.5858 50.2228C81.0504 49.9566 80.5891 49.5338 80.1938 48.9544C79.8231 49.5886 79.3041 50.0819 78.6452 50.4264C77.9862 50.7709 77.1872 50.9432 76.2399 50.9432C75.5315 50.9432 74.8067 50.8336 74.0736 50.6143C73.3404 50.3951 72.5826 50.0271 71.8001 49.4946C71.3388 50.0192 70.8611 50.3403 70.3833 50.4499C69.9056 50.5595 69.3784 50.6143 68.81 50.6143H67.3932C67.2532 50.6143 67.1214 50.5987 66.9896 50.5752C66.866 50.5517 66.7507 50.4812 66.6519 50.3873C66.553 50.2855 66.4789 50.1367 66.4212 49.9409C66.3718 49.7452 66.3389 49.4711 66.3389 49.1266C66.3389 48.508 66.4212 48.0852 66.5942 47.8503C66.7672 47.6154 67.0226 47.4979 67.385 47.4979H68.7771L68.7853 47.5058Z" fill="#414140"/>
<path d="M86.4618 47.4981V31.188H89.9379V50.6302H83.3893C83.2493 50.6302 83.1175 50.6145 82.9857 50.591C82.8621 50.5675 82.7468 50.4971 82.648 50.4031C82.5491 50.3013 82.475 50.1526 82.4173 49.9568C82.3679 49.761 82.335 49.487 82.335 49.1425C82.335 48.5239 82.4173 48.1011 82.5903 47.8662C82.7633 47.6313 83.0186 47.5138 83.3811 47.5138H86.4535L86.4618 47.4981Z" fill="#414140"/>
<path d="M96.6431 50.6302H93.167V31.188H96.6431V50.6302Z" fill="#414140"/>
<path d="M111.173 38.6269C111.173 38.1023 111.363 37.6481 111.733 37.2645C112.104 36.8808 112.549 36.6929 113.068 36.6929C113.587 36.6929 114.031 36.8808 114.402 37.2645C114.773 37.6481 114.962 38.1023 114.962 38.6269C114.962 39.1515 114.773 39.6057 114.402 39.9894C114.031 40.373 113.587 40.561 113.068 40.561C112.549 40.561 112.104 40.373 111.733 39.9894C111.363 39.6057 111.173 39.1515 111.173 38.6269ZM120.283 46.9582C120.283 48.3911 120.11 49.5891 119.773 50.5365C119.435 51.4918 118.949 52.2592 118.315 52.8386C117.68 53.418 116.906 53.833 115.992 54.0758C115.077 54.3185 114.048 54.4438 112.903 54.4438C110.498 54.4438 108.685 53.8487 107.466 52.6585C106.247 51.4683 105.638 49.7144 105.638 47.3888V43.1136H109.114V47.2557C109.114 48.5242 109.419 49.4951 110.036 50.1685C110.646 50.8419 111.651 51.1786 113.035 51.1786C114.328 51.1786 115.292 50.8889 115.926 50.3173C116.552 49.7457 116.873 48.7904 116.873 47.4436V40.1146H120.316L120.292 46.9503L120.283 46.9582Z" fill="#414140"/>
<path d="M129.822 49.0015C129.822 49.6201 129.74 50.0429 129.567 50.2778C129.394 50.5127 129.13 50.6302 128.776 50.6302H127.656C127.046 50.6302 126.495 50.5597 125.984 50.4266C125.473 50.2935 125.037 50.0664 124.674 49.7454C124.312 49.4244 124.023 49.0094 123.817 48.4769C123.612 47.9523 123.513 47.2946 123.513 46.5194V31.188H126.989V46.0261C126.989 46.6603 127.104 47.0675 127.326 47.2397C127.549 47.412 127.862 47.4981 128.274 47.4981H128.784C128.925 47.4981 129.056 47.5138 129.188 47.5373C129.312 47.5608 129.427 47.6313 129.518 47.7252C129.616 47.827 129.691 47.9758 129.748 48.1715C129.798 48.3751 129.831 48.6413 129.831 48.9859L129.822 49.0015Z" fill="#414140"/>
<path d="M128.752 50.6303C128.612 50.6303 128.48 50.6146 128.349 50.5912C128.225 50.5677 128.11 50.4972 128.019 50.4032C127.92 50.3014 127.846 50.1527 127.788 49.9569C127.731 49.7612 127.706 49.4871 127.706 49.1426C127.706 48.524 127.788 48.1012 127.961 47.8663C128.134 47.6314 128.39 47.5139 128.752 47.5139H132.706C132.846 47.5139 132.978 47.5296 133.11 47.5531C133.233 47.5766 133.349 47.647 133.439 47.741C133.538 47.8428 133.612 47.9916 133.67 48.1873C133.727 48.3909 133.752 48.6571 133.752 49.0016C133.752 49.6202 133.67 50.043 133.497 50.278C133.324 50.5129 133.068 50.6303 132.706 50.6303H128.752Z" fill="#414140"/>
<path d="M137.755 55.2109C137.755 54.6863 137.944 54.2322 138.315 53.8485C138.685 53.4648 139.13 53.2769 139.649 53.2769C140.168 53.2769 140.613 53.4648 140.984 53.8485C141.354 54.2322 141.544 54.6863 141.544 55.2109C141.544 55.7355 141.354 56.1897 140.984 56.5734C140.613 56.957 140.168 57.145 139.649 57.145C139.13 57.145 138.685 56.957 138.315 56.5734C137.944 56.1897 137.755 55.7355 137.755 55.2109ZM133.397 55.2109C133.397 54.6863 133.587 54.2322 133.957 53.8485C134.328 53.4648 134.773 53.2769 135.292 53.2769C135.811 53.2769 136.256 53.4648 136.626 53.8485C136.997 54.2322 137.186 54.6863 137.186 55.2109C137.186 55.7355 136.997 56.1897 136.626 56.5734C136.256 56.957 135.811 57.145 135.292 57.145C134.773 57.145 134.328 56.957 133.957 56.5734C133.587 56.1897 133.397 55.7355 133.397 55.2109ZM142.269 50.6381C142.022 50.6381 141.75 50.6225 141.47 50.5833C141.181 50.5442 140.91 50.4815 140.638 50.3797C140.374 50.2779 140.119 50.137 139.88 49.9569C139.641 49.7768 139.435 49.5419 139.279 49.2522C139.064 49.5576 138.809 49.8081 138.504 50.0039C138.199 50.1918 137.878 50.3328 137.541 50.4267C137.203 50.5207 136.849 50.5755 136.486 50.6068C136.124 50.6303 135.761 50.646 135.407 50.646H132.714C132.574 50.646 132.433 50.6303 132.31 50.6068C132.186 50.5833 132.071 50.5128 131.972 50.4189C131.873 50.3171 131.799 50.1683 131.742 49.9726C131.692 49.7768 131.659 49.5028 131.659 49.1582C131.659 48.5397 131.742 48.1168 131.915 47.8819C132.088 47.647 132.343 47.5296 132.705 47.5296H134.839C135.448 47.5296 135.868 47.4356 136.107 47.2399C136.346 47.0519 136.47 46.6213 136.47 45.9479V39.8169H139.946V45.6425C139.946 46.3159 140.119 46.7935 140.465 47.0833C140.811 47.373 141.412 47.5217 142.269 47.5217C142.409 47.5217 142.54 47.5374 142.672 47.5609C142.796 47.5844 142.911 47.6549 143.01 47.7488C143.109 47.8506 143.183 47.9994 143.241 48.1951C143.298 48.3987 143.323 48.6649 143.323 49.0095C143.323 49.628 143.241 50.0509 143.068 50.2858C142.895 50.5207 142.631 50.6381 142.277 50.6381H142.269Z" fill="#414140"/>
<path d="M144.912 55.1248C144.912 54.6002 145.102 54.1461 145.473 53.7624C145.843 53.3787 146.296 53.1908 146.807 53.1908C147.318 53.1908 147.771 53.3787 148.141 53.7624C148.512 54.1461 148.702 54.6002 148.702 55.1248C148.702 55.6495 148.512 56.1036 148.141 56.4873C147.763 56.871 147.326 57.0589 146.807 57.0589C146.288 57.0589 145.843 56.871 145.473 56.4873C145.102 56.1036 144.912 55.6495 144.912 55.1248ZM145.341 47.4983V39.7935H148.817V50.6304H142.277C142.137 50.6304 141.997 50.6147 141.873 50.5912C141.749 50.5677 141.634 50.4972 141.543 50.4033C141.445 50.3015 141.37 50.1527 141.313 49.957C141.263 49.7612 141.23 49.4872 141.23 49.1426C141.23 48.524 141.313 48.1012 141.486 47.8663C141.659 47.6314 141.914 47.514 142.277 47.514H145.349L145.341 47.4983Z" fill="#414140"/>
<path d="M155.522 50.6303H152.046V31.1881H155.522V50.6303ZM156.297 29.5516H151.091V27.6489H152.186C152.096 27.5236 152.038 27.3435 151.997 27.1007C151.964 26.8658 151.939 26.6779 151.939 26.5291C151.939 26.1142 152.005 25.7461 152.137 25.4251C152.269 25.1041 152.45 24.8457 152.681 24.6343C152.911 24.4228 153.175 24.2662 153.471 24.1566C153.768 24.047 154.064 23.9922 154.369 23.9922C154.658 23.9922 154.913 24.0157 155.144 24.0705C155.374 24.1253 155.58 24.1879 155.761 24.2584V26.0593C155.3 25.9497 154.971 25.8949 154.773 25.8949C154.435 25.8949 154.188 25.9732 154.04 26.1376C153.891 26.3021 153.809 26.4978 153.809 26.7327C153.809 26.9911 153.883 27.2025 154.031 27.3748C154.18 27.5471 154.468 27.6332 154.888 27.6332H156.288V29.5359L156.297 29.5516Z" fill="#414140"/>
<path d="M26.8994 72.1707L30.5485 62.4849H31.9323L35.8038 72.1707H34.3705L33.275 69.2344H29.2635L28.2338 72.1707H26.8994ZM29.6341 68.193H32.8714L31.8829 65.5073C31.5864 64.693 31.3557 64.0196 31.1992 63.4871C31.0674 64.1214 30.8944 64.7399 30.672 65.3507L29.6259 68.193H29.6341Z" fill="#414140"/>
<path d="M38.918 72.1707V62.4849H42.4847C43.2095 62.4849 43.7944 62.5788 44.2309 62.7746C44.6675 62.9703 45.0135 63.2757 45.2606 63.6829C45.5077 64.09 45.6312 64.5129 45.6312 64.9592C45.6312 65.3742 45.5242 65.7579 45.3018 66.1259C45.0794 66.4939 44.7499 66.7836 44.3051 67.0107C44.8817 67.1829 45.3265 67.4727 45.6312 67.8876C45.9443 68.3026 46.0925 68.7881 46.0925 69.3519C46.0925 69.806 45.9937 70.2289 45.8125 70.6204C45.623 71.0119 45.3924 71.3094 45.1123 71.5208C44.8322 71.7322 44.4863 71.8888 44.0744 71.9985C43.6543 72.1081 43.1436 72.1629 42.5423 72.1629H38.918V72.1707ZM40.1783 66.5565H42.2293C42.7894 66.5565 43.1848 66.5174 43.4319 66.4469C43.7532 66.3529 43.9921 66.1885 44.1568 65.9614C44.3215 65.7344 44.4039 65.4525 44.4039 65.1158C44.4039 64.7947 44.3298 64.5129 44.1733 64.2623C44.025 64.0196 43.8026 63.8473 43.5225 63.7533C43.2425 63.6672 42.7565 63.6202 42.081 63.6202H40.1783V66.5565ZM40.1783 71.0354H42.5423C42.9459 71.0354 43.2342 71.0197 43.399 70.9884C43.6873 70.9336 43.9262 70.8474 44.1239 70.7222C44.3215 70.5969 44.478 70.4168 44.6016 70.1819C44.7252 69.947 44.7911 69.6729 44.7911 69.3597C44.7911 68.9995 44.7005 68.6863 44.5192 68.4123C44.338 68.146 44.0827 67.9581 43.7614 67.8485C43.4402 67.7389 42.9789 67.6841 42.3693 67.6841H40.17V71.0275L40.1783 71.0354Z" fill="#414140"/>
<path d="M52.6733 72.1707V68.0678L49.0078 62.4849H50.5234L52.4015 65.4133C52.7475 65.9536 53.077 66.5017 53.3735 67.042C53.6618 66.5331 54.016 65.9693 54.4279 65.335L56.2647 62.4771H57.731L53.9336 68.0599V72.1629H52.6733V72.1707Z" fill="#414140"/>
<path d="M58.9912 72.1707L62.6403 62.4849H64.0241L67.8956 72.1707H66.4623L65.3668 69.2344H61.3635L60.3339 72.1707H58.9994H58.9912ZM61.7259 68.193H64.9631L63.9747 65.5073C63.6782 64.693 63.4475 64.0196 63.291 63.4871C63.1592 64.1214 62.9862 64.7399 62.7638 65.3507L61.7259 68.193Z" fill="#414140"/>
<path d="M71.042 72.1707V62.4849H72.3352L77.3187 70.0879V62.4849H78.5296V72.1707H77.2363L72.2529 64.5677V72.1707H71.042Z" fill="#414140"/>
<path d="M95.9918 68.9369L97.2521 69.2658C96.9885 70.315 96.5189 71.1215 95.8353 71.6696C95.1516 72.2256 94.3114 72.4996 93.3229 72.4996C92.3345 72.4996 91.4696 72.2882 90.8271 71.8654C90.1846 71.4425 89.6986 70.824 89.3609 70.0175C89.0231 69.211 88.8584 68.3496 88.8584 67.4179C88.8584 66.4078 89.0479 65.5308 89.4268 64.7791C89.8057 64.0274 90.3411 63.4558 91.0412 63.0643C91.7414 62.6728 92.5075 62.4771 93.3394 62.4771C94.2867 62.4771 95.0857 62.7198 95.7364 63.2131C96.3872 63.7064 96.832 64.3954 97.0873 65.2959L95.8517 65.5934C95.6293 64.8887 95.3081 64.3719 94.8962 64.0587C94.4761 63.7377 93.949 63.5733 93.3147 63.5733C92.5898 63.5733 91.9803 63.7534 91.4861 64.1057C91.0001 64.4659 90.6541 64.9435 90.4564 65.5386C90.2587 66.1415 90.1599 66.7601 90.1599 67.4022C90.1599 68.2244 90.2752 68.9447 90.5141 69.5555C90.7447 70.1741 91.1154 70.6282 91.6096 70.9336C92.1038 71.239 92.6393 71.3877 93.2159 71.3877C93.916 71.3877 94.5091 71.1763 94.9951 70.7692C95.4811 70.3542 95.8106 69.7434 95.9835 68.9212L95.9918 68.9369Z" fill="#414140"/>
<path d="M99.9385 72.3353L103.588 62.6494H104.971L108.843 72.3353H107.41L106.314 69.399H102.311L101.281 72.3353H99.9467H99.9385ZM102.673 68.3576H105.91L104.922 65.6718C104.625 64.8575 104.395 64.1841 104.238 63.6517C104.106 64.2859 103.933 64.9045 103.711 65.5152L102.665 68.3576H102.673Z" fill="#414140"/>
<path d="M112.015 72.3353V62.6494H115.606C116.232 62.6494 116.718 62.6807 117.056 62.7434C117.525 62.8217 117.912 62.9704 118.234 63.1975C118.547 63.4168 118.802 63.73 119 64.1293C119.189 64.5286 119.288 64.9671 119.288 65.4448C119.288 66.2669 119.033 66.9638 118.514 67.5276C118.003 68.0992 117.072 68.3811 115.721 68.3811H113.283V72.3353H112.023H112.015ZM113.275 67.2457H115.73C116.545 67.2457 117.122 67.0891 117.459 66.7837C117.797 66.4783 117.97 66.0399 117.97 65.4839C117.97 65.0768 117.871 64.7322 117.674 64.4425C117.476 64.1528 117.204 63.9649 116.883 63.8709C116.669 63.8161 116.281 63.7848 115.713 63.7848H113.283V67.2457H113.275Z" fill="#414140"/>
<path d="M123.249 72.3353V62.6494H124.509V72.3353H123.249Z" fill="#414140"/>
<path d="M131.314 72.3353V63.7848H128.184V62.6494H135.712V63.7848H132.582V72.3353H131.322H131.314Z" fill="#414140"/>
<path d="M137.153 72.3353L140.802 62.6494H142.186L146.058 72.3353H144.624L143.521 69.399H139.517L138.488 72.3353H137.153ZM139.888 68.3576H143.125L142.137 65.6718C141.84 64.8575 141.61 64.1841 141.453 63.6517C141.321 64.2859 141.148 64.9045 140.926 65.5152L139.888 68.3576Z" fill="#414140"/>
<path d="M149.172 72.3353V62.6494H150.432V71.1999H155.103V72.3353H149.172Z" fill="#414140"/>
</g>
<defs>
<clipPath id="clip0_5367_10500">
<rect width="186.201" height="59.5873" fill="white" transform="translate(26.8994 24)"/>
</clipPath>
</defs>
</svg>
