<svg width="157" height="159" viewBox="0 0 157 159" fill="none" xmlns="http://www.w3.org/2000/svg">
<path d="M0.119141 65.3829L0.52675 63.5113L10.2428 65.6325L11.3159 60.7412L12.9713 61.1072L11.4906 67.8619L0.119141 65.3747V65.3829Z" fill="white"/>
<path d="M5.20237 48.1895L6.79954 48.7801L4.83636 54.1206L7.86431 55.2353L9.48643 50.8347L11.0337 51.4004L9.41156 55.8009L12.5809 56.9655L14.619 51.442L16.2078 52.0326L13.5126 59.3529L2.58203 55.3268L5.21069 48.1895H5.20237Z" fill="white"/>
<path d="M10.6919 37.5498L12.1809 38.3567L10.4673 41.5177L19.2101 46.2593L18.295 47.9397L9.55225 43.1981L7.83863 46.3591L6.34961 45.5522L10.6919 37.5498Z" fill="white"/>
<path d="M15.4258 33.9476C16.0829 34.4051 16.4573 34.9541 16.5488 35.6029C16.6403 36.2518 16.449 36.9173 15.9831 37.6077L15.1928 37.0587C15.459 36.6511 15.5672 36.2768 15.509 35.9357C15.4507 35.5946 15.2844 35.3284 15.0098 35.1371C14.9267 35.0789 14.8684 35.0456 14.8185 35.029C14.8268 35.212 14.7686 35.395 14.6438 35.578C14.4775 35.8109 14.2695 35.9524 14.0116 36.0023C13.7537 36.0439 13.4875 35.969 13.2047 35.7777C12.9385 35.5946 12.7888 35.3451 12.7389 35.029C12.6973 34.7129 12.7805 34.4051 12.9968 34.089C13.2463 33.7229 13.604 33.5316 14.0698 33.515C14.5274 33.4983 14.9849 33.6398 15.4258 33.9559V33.9476Z" fill="white"/>
<path d="M24.567 34.6883C25.2159 34.5802 25.7982 34.2225 26.3305 33.6152C26.7964 33.0828 27.0626 32.5505 27.1208 32.0181C27.179 31.4857 27.0043 31.0448 26.5967 30.6871C26.3056 30.4292 25.9978 30.3211 25.6651 30.346C25.3406 30.3793 24.9913 30.5041 24.6336 30.737C24.2675 30.9616 23.7934 31.3193 23.2028 31.7852C22.6038 32.2676 22.0465 32.6336 21.5307 32.8998C21.015 33.166 20.4743 33.2742 19.9169 33.2409C19.3596 33.2076 18.8106 32.9497 18.2699 32.4756C17.7708 32.0347 17.438 31.5189 17.2716 30.9117C17.1053 30.3044 17.1219 29.6722 17.3215 29.0068C17.5212 28.3413 17.8789 27.7091 18.4113 27.1018C18.9603 26.4779 19.5676 26.0204 20.233 25.7292C20.8985 25.4381 21.5557 25.3299 22.2129 25.4048C22.87 25.4797 23.469 25.7293 24.018 26.1701L22.7785 27.5843C22.2877 27.2432 21.747 27.1185 21.173 27.2183C20.5991 27.3181 20.0833 27.6342 19.6175 28.1582C19.1683 28.6657 18.927 29.1731 18.8854 29.6722C18.8438 30.1713 19.0185 30.5956 19.4178 30.945C19.7007 31.1945 20.0084 31.3027 20.3329 31.2694C20.6573 31.2362 20.99 31.103 21.3394 30.8784C21.6888 30.6538 22.1546 30.3044 22.7452 29.8303C23.3442 29.3478 23.9015 28.9818 24.4256 28.7156C24.9497 28.4494 25.4904 28.333 26.0394 28.3579C26.5884 28.3829 27.1374 28.6324 27.6698 29.0982C28.1856 29.5474 28.535 30.0965 28.7013 30.7287C28.8677 31.3609 28.8511 32.0264 28.6514 32.7168C28.4518 33.4073 28.0774 34.0728 27.5284 34.6967C26.9212 35.3871 26.264 35.8862 25.5569 36.194C24.8498 36.5018 24.1344 36.6099 23.4357 36.5101C22.7286 36.4186 22.0881 36.1191 21.4975 35.6283L22.7619 34.2308C23.3192 34.6384 23.9182 34.7965 24.5587 34.6883H24.567Z" fill="white"/>
<path d="M35.0155 13.6917C35.8973 13.7166 36.621 14.1076 37.17 14.8812C37.5776 15.4469 37.7607 16.0208 37.7274 16.6031C37.6858 17.1854 37.4279 17.7428 36.9538 18.2752C38.5426 17.5016 39.7821 17.7345 40.6721 18.9822C41.2628 19.7975 41.4208 20.6626 41.1463 21.5693C40.8718 22.476 40.173 23.3328 39.05 24.1397L35.4564 26.7268L28.6602 17.2686L32.129 14.7731C33.1605 14.0244 34.1254 13.6667 35.0072 13.6917H35.0155ZM35.0654 18.7576C35.5978 18.375 35.9223 17.959 36.0387 17.5015C36.1552 17.044 36.0637 16.6115 35.7559 16.1872C35.4481 15.763 35.0654 15.5384 34.5996 15.5134C34.1338 15.4885 33.6347 15.6631 33.1106 16.0458L31.1557 17.4516L33.1106 20.1635L35.0654 18.7576ZM38.135 22.8254C38.7506 22.3845 39.1249 21.927 39.2829 21.4362C39.4327 20.9537 39.3495 20.4879 39.0334 20.047C38.7007 19.5895 38.2764 19.3482 37.769 19.3399C37.2532 19.3316 36.6959 19.5396 36.0969 19.9721L34.0423 21.4445L36.0886 24.2978L38.1433 22.8254H38.135Z" fill="white"/>
<path d="M43.7001 15.4134C44.1908 16.395 44.7482 17.0355 45.3804 17.335C46.0126 17.6345 46.7363 17.5846 47.5515 17.1769C48.3751 16.7693 48.8659 16.2203 49.0073 15.5298C49.157 14.8394 48.9823 14.0075 48.4915 13.0259L45.4802 6.97839L47.1938 6.12988L50.1552 12.0943C50.8956 13.5833 51.1119 14.8893 50.7958 16.0123C50.4797 17.1353 49.6478 18.0337 48.3002 18.7075C46.9609 19.373 45.7464 19.4978 44.665 19.0652C43.5836 18.6327 42.6769 17.6761 41.9282 16.187L38.9668 10.2226L40.6804 9.36581L43.6917 15.4134H43.7001Z" fill="white"/>
<path d="M52.7094 4.15918L56.6108 15.1314L54.8057 15.7719L50.9043 4.79972L52.7094 4.15918Z" fill="white"/>
<path d="M56.4023 2.93603L58.2574 2.47852L60.6282 12.1446L65.4945 10.9551L65.9021 12.6022L59.1807 14.2493L56.4107 2.93603H56.4023Z" fill="white"/>
<path d="M70.2769 0.316238C71.4582 0.208097 72.5146 0.357838 73.438 0.765447C74.3613 1.17306 75.11 1.78861 75.659 2.62047C76.2164 3.45232 76.5408 4.44226 76.6489 5.59022C76.7488 6.72986 76.6073 7.76133 76.2164 8.67637C75.8254 9.59141 75.2015 10.3401 74.3696 10.9057C73.5295 11.4714 72.5229 11.8125 71.3417 11.9206L67.6483 12.2617L66.5918 0.665603L70.2852 0.324565L70.2769 0.316238ZM73.962 8.87601C74.5693 8.06911 74.8105 7.0293 74.6941 5.76488C74.5776 4.49214 74.1534 3.51888 73.4047 2.83676C72.656 2.15464 71.6661 1.86349 70.4183 1.97995L68.6298 2.14633L69.3868 10.4316L71.1753 10.2652C72.4231 10.1488 73.3465 9.69124 73.9537 8.88434L73.962 8.87601Z" fill="white"/>
<path d="M94.094 1.31424L93.8611 2.99458L90.3007 2.49546L88.9198 12.3446L87.0232 12.0784L88.4041 2.22926L84.8438 1.73017L85.0767 0.0498047L94.0857 1.31424H94.094Z" fill="white"/>
<path d="M101.314 14.732C100.34 14.965 99.3339 14.9233 98.2857 14.6072C97.2376 14.2911 96.3725 13.7588 95.6987 13.0184C95.0249 12.2781 94.5923 11.4129 94.401 10.4147C94.2096 9.41649 94.2762 8.37667 94.6089 7.29526C94.9417 6.21384 95.4657 5.31544 96.1811 4.59173C96.8965 3.86801 97.745 3.39383 98.7183 3.16091C99.6916 2.92799 100.698 2.9696 101.746 3.28571C102.794 3.60181 103.66 4.13418 104.333 4.87453C105.007 5.61488 105.44 6.48001 105.631 7.47824C105.822 8.47647 105.756 9.51628 105.423 10.5977C105.09 11.6791 104.566 12.5775 103.851 13.3012C103.135 14.0249 102.287 14.4991 101.314 14.732ZM97.0962 11.9204C97.5287 12.4278 98.0861 12.7855 98.7765 13.0018C99.467 13.2097 100.132 13.2264 100.773 13.0434C101.414 12.8603 101.979 12.511 102.462 11.9786C102.944 11.4462 103.31 10.7973 103.543 10.0237C103.776 9.25009 103.843 8.50974 103.734 7.79435C103.626 7.07895 103.36 6.47169 102.927 5.96426C102.495 5.45683 101.938 5.09914 101.247 4.88286C100.557 4.67489 99.8912 4.65826 99.2507 4.84127C98.6102 5.02428 98.0445 5.37363 97.562 5.90602C97.0795 6.43841 96.7135 7.08729 96.4806 7.86091C96.2477 8.63454 96.1811 9.37488 96.2893 10.0903C96.3974 10.8057 96.6636 11.4129 97.0962 11.9204Z" fill="white"/>
<path d="M112.418 8.16067C113.408 8.11908 114.406 8.36864 115.412 8.89271C116.602 9.5166 117.417 10.3568 117.866 11.4215C118.316 12.4863 118.332 13.6093 117.933 14.7989L116.253 13.9171C116.427 13.1684 116.377 12.4863 116.086 11.8541C115.795 11.2302 115.296 10.7228 114.589 10.3568C113.94 10.0157 113.291 9.8743 112.634 9.94085C111.977 10.0074 111.37 10.2486 110.812 10.6729C110.247 11.0971 109.772 11.6794 109.39 12.4198C109.007 13.1601 108.791 13.8755 108.758 14.5743C108.724 15.2731 108.866 15.9136 109.182 16.4875C109.498 17.0615 109.98 17.5191 110.629 17.8601C111.453 18.2927 112.26 18.4258 113.058 18.2677C113.848 18.1097 114.481 17.6355 114.938 16.8452L115.071 16.5957L112.21 15.0984L112.958 13.6675L117.442 16.0217L114.481 21.67L113.2 20.9962L113.799 19.4323C113.274 19.7068 112.667 19.8566 111.96 19.8732C111.253 19.8898 110.529 19.7068 109.781 19.3159C108.824 18.8168 108.1 18.1513 107.593 17.3277C107.085 16.5042 106.836 15.5892 106.836 14.5743C106.836 13.5594 107.11 12.5362 107.651 11.5047C108.2 10.4649 108.882 9.65799 109.706 9.07569C110.529 8.50171 111.436 8.18562 112.418 8.15234V8.16067Z" fill="white"/>
<path d="M129.488 18.3345L128.465 19.6904L123.923 16.2631L121.976 18.8419L125.72 21.6702L124.73 22.9845L120.986 20.1562L118.948 22.8515L123.648 26.4035L122.625 27.7594L116.395 23.0594L123.415 13.7676L129.48 18.3511L129.488 18.3345Z" fill="white"/>
<path d="M138.091 26.6607L136.885 27.8586L134.356 25.3048L127.285 32.3091L125.938 30.9531L133.008 23.9489L130.479 21.3951L131.686 20.1973L138.091 26.6607Z" fill="white"/>
<path d="M141.525 30.9198L137.54 33.7814L140.693 38.1736L144.678 35.312L145.792 36.8676L136.318 43.6639L135.203 42.1083L139.312 39.1635L136.16 34.7713L132.05 37.7161L130.936 36.1606L140.41 29.3643L141.525 30.9198Z" fill="white"/>
<path d="M151.3 47.3324L149.786 48.0977L147.232 43.015L144.345 44.4625L146.45 48.655L144.977 49.3954L142.873 45.2028L139.853 46.7168L142.499 51.9824L140.985 52.7477L137.482 45.7768L147.889 40.5527L151.3 47.349V47.3324Z" fill="white"/>
<path d="M154.404 57.3889C154.304 58.0627 154.038 58.645 153.614 59.1441C153.19 59.6432 152.616 60.0009 151.909 60.2338C151.168 60.4751 150.461 60.4918 149.771 60.2838C149.08 60.0758 148.523 59.6848 148.074 59.1025L144.422 62.8792L143.765 60.8577L147.1 57.4471L146.302 54.9848L142.284 56.2908L141.693 54.4691L152.765 50.8672L154.188 55.2344C154.437 55.9997 154.512 56.7234 154.412 57.3972L154.404 57.3889ZM148.664 56.8565C148.872 57.5137 149.222 57.9712 149.704 58.2457C150.187 58.5203 150.719 58.5535 151.31 58.3622C151.9 58.1708 152.308 57.8215 152.541 57.3223C152.774 56.8232 152.774 56.2493 152.566 55.5921L151.784 53.188L147.891 54.4525L148.673 56.8565H148.664Z" fill="white"/>
<path d="M12.4824 95.6797L13.0231 97.5181L3.48169 100.338L4.90416 105.138L3.27373 105.62L1.31055 98.9821L12.4824 95.6797Z" fill="white"/>
<path d="M18.2305 110.969L16.6833 111.668L14.3374 106.485L11.3927 107.816L13.3226 112.092L11.8252 112.774L9.89534 108.498L6.81748 109.887L9.24649 115.253L7.69924 115.952L4.48828 108.848L15.0944 104.048L18.2305 110.977V110.969Z" fill="white"/>
<path d="M23.6777 119.712L22.2469 120.627L20.3087 117.599L11.9319 122.956L10.9004 121.342L19.2772 115.985L17.3389 112.957L18.7697 112.042L23.6694 119.703L23.6777 119.712Z" fill="white"/>
<path d="M25.084 124.203C24.4601 124.703 23.8279 124.91 23.1874 124.819C22.5468 124.727 21.9562 124.361 21.4238 123.721L22.1725 123.114C22.4886 123.488 22.813 123.688 23.1624 123.729C23.5035 123.763 23.8029 123.679 24.0691 123.471C24.144 123.405 24.2022 123.363 24.2272 123.322C24.0525 123.28 23.8944 123.172 23.753 122.997C23.57 122.773 23.4951 122.531 23.5201 122.273C23.5451 122.016 23.6948 121.783 23.961 121.566C24.2105 121.367 24.4934 121.284 24.8095 121.333C25.1256 121.375 25.4001 121.55 25.633 121.841C25.9158 122.19 25.999 122.581 25.8826 123.03C25.7744 123.48 25.5082 123.871 25.084 124.212V124.203Z" fill="white"/>
<path d="M22.7386 133.097C22.8051 133.746 23.1212 134.361 23.7035 134.927C24.211 135.426 24.7267 135.725 25.2508 135.817C25.7749 135.908 26.2324 135.759 26.615 135.376C26.8896 135.102 27.0226 134.802 27.0143 134.469C27.006 134.137 26.8979 133.787 26.6899 133.413C26.4819 133.039 26.1658 132.539 25.7333 131.924C25.2924 131.3 24.9513 130.718 24.7267 130.185C24.4938 129.653 24.4189 129.112 24.4855 128.555C24.5604 127.997 24.8515 127.465 25.3589 126.958C25.8248 126.484 26.3655 126.184 26.9811 126.059C27.5966 125.934 28.2288 125.993 28.8777 126.226C29.5265 126.459 30.1338 126.866 30.7161 127.432C31.3067 128.014 31.7226 128.655 31.9722 129.328C32.2217 130.011 32.28 130.676 32.1718 131.325C32.0637 131.974 31.7642 132.564 31.2984 133.08L29.9591 131.757C30.3334 131.283 30.4915 130.759 30.4249 130.177C30.3584 129.595 30.0756 129.062 29.5848 128.571C29.1023 128.097 28.6198 127.814 28.1207 127.74C27.6216 127.665 27.189 127.814 26.8147 128.189C26.5485 128.455 26.4237 128.754 26.432 129.079C26.4487 129.403 26.5568 129.744 26.7565 130.11C26.9644 130.468 27.2805 130.959 27.7131 131.574C28.154 132.198 28.495 132.781 28.7196 133.321C28.9442 133.862 29.0357 134.403 28.9775 134.952C28.9193 135.501 28.6365 136.025 28.1373 136.532C27.6549 137.023 27.0892 137.331 26.4487 137.456C25.8081 137.58 25.1427 137.522 24.4689 137.281C23.7867 137.04 23.1545 136.624 22.5639 136.033C21.9067 135.384 21.4492 134.694 21.1913 133.97C20.9335 133.238 20.8669 132.531 21.0083 131.832C21.1498 131.134 21.4825 130.51 22.0149 129.961L23.3292 131.308C22.88 131.832 22.697 132.423 22.7636 133.072L22.7386 133.097Z" fill="white"/>
<path d="M45.1078 139.501C45.4323 140.325 45.3408 141.14 44.8416 141.955C44.4756 142.546 44.0181 142.945 43.4608 143.128C42.9034 143.311 42.2962 143.294 41.6224 143.062C42.945 144.226 43.2112 145.466 42.4043 146.772C41.8719 147.628 41.1399 148.111 40.1999 148.211C39.2599 148.311 38.2034 147.994 37.0222 147.271L33.2539 144.95L39.3597 135.034L43.0033 137.272C44.093 137.937 44.7917 138.686 45.1162 139.51L45.1078 139.501ZM37.879 145.898C38.5196 146.289 39.0935 146.464 39.601 146.422C40.1084 146.381 40.4994 146.123 40.7822 145.657C41.0817 145.174 41.1316 144.692 40.9486 144.218C40.7656 143.735 40.3496 143.303 39.7174 142.912L37.5629 141.589L35.7245 144.576L37.879 145.898ZM40.4495 141.498C41.0068 141.839 41.5142 141.98 41.9801 141.914C42.4459 141.847 42.8119 141.589 43.0864 141.148C43.3609 140.707 43.4192 140.267 43.2694 139.826C43.1197 139.385 42.762 138.994 42.2047 138.653L40.15 137.388L38.3948 140.233L40.4495 141.498Z" fill="white"/>
<path d="M47.6618 147.421C47.2459 148.436 47.1294 149.284 47.3208 149.95C47.5121 150.615 48.0278 151.131 48.868 151.48C49.7165 151.829 50.4569 151.838 51.0641 151.488C51.6714 151.139 52.1954 150.465 52.6114 149.45L55.1735 143.203L56.9453 143.927L54.4165 150.083C53.7843 151.622 52.9441 152.645 51.8876 153.144C50.8395 153.651 49.6084 153.61 48.2108 153.044C46.8216 152.478 45.9399 151.638 45.5489 150.548C45.1579 149.45 45.2827 148.136 45.9149 146.597L48.4438 140.441L50.2156 141.173L47.6535 147.421H47.6618Z" fill="white"/>
<path d="M61.262 145.067L58.1592 156.289L56.3125 155.781L59.4153 144.56L61.262 145.067Z" fill="white"/>
<path d="M63.8924 145.758L65.7807 146.082L64.1086 155.89L69.0415 156.73L68.7587 158.402L61.9375 157.237L63.8924 145.758Z" fill="white"/>
<path d="M76.1774 147.213C77.3669 147.238 78.3984 147.504 79.2719 148.003C80.1453 148.51 80.8191 149.201 81.2766 150.091C81.7342 150.973 81.9504 151.996 81.9338 153.144C81.9088 154.283 81.651 155.29 81.1602 156.163C80.6694 157.037 79.9706 157.711 79.0722 158.176C78.1738 158.651 77.134 158.867 75.9444 158.85L72.2344 158.775L72.4673 147.138L76.1774 147.213ZM78.8975 156.122C79.588 155.39 79.9457 154.383 79.9706 153.11C79.9956 151.838 79.6795 150.815 79.014 150.058C78.3485 149.301 77.3919 148.901 76.1441 148.876L74.3473 148.843L74.1809 157.153L75.9777 157.187C77.2338 157.211 78.1988 156.854 78.8892 156.122H78.8975Z" fill="white"/>
<path d="M97.2139 144.775L97.5716 146.439L94.0528 147.196L96.1408 156.929L94.2691 157.328L92.1811 147.595L88.6624 148.352L88.3047 146.689L97.2055 144.775H97.2139Z" fill="white"/>
<path d="M109.599 151.879C108.984 152.669 108.16 153.26 107.137 153.651C106.114 154.05 105.107 154.158 104.126 154C103.144 153.834 102.262 153.418 101.497 152.753C100.732 152.087 100.141 151.23 99.7336 150.174C99.326 149.117 99.1846 148.086 99.3011 147.079C99.4175 146.073 99.7919 145.174 100.407 144.384C101.023 143.594 101.847 143.003 102.87 142.612C103.893 142.213 104.899 142.096 105.881 142.263C106.863 142.429 107.744 142.845 108.51 143.511C109.275 144.176 109.866 145.033 110.273 146.089C110.681 147.146 110.822 148.177 110.706 149.184C110.589 150.19 110.215 151.089 109.599 151.879ZM104.542 152.278C105.191 152.411 105.856 152.345 106.53 152.087C107.204 151.829 107.736 151.43 108.127 150.889C108.518 150.348 108.743 149.725 108.801 149.009C108.859 148.294 108.734 147.553 108.443 146.805C108.152 146.048 107.744 145.424 107.22 144.933C106.696 144.442 106.106 144.126 105.457 143.993C104.808 143.86 104.142 143.927 103.469 144.184C102.795 144.442 102.262 144.842 101.872 145.382C101.481 145.923 101.256 146.547 101.198 147.262C101.139 147.978 101.264 148.718 101.555 149.467C101.847 150.224 102.254 150.848 102.778 151.338C103.302 151.829 103.893 152.145 104.542 152.278Z" fill="white"/>
<path d="M111.971 139.202C112.437 138.328 113.153 137.596 114.126 136.997C115.265 136.29 116.405 136.016 117.545 136.166C118.684 136.324 119.666 136.873 120.489 137.821L118.876 138.819C118.327 138.287 117.703 137.987 117.012 137.921C116.322 137.854 115.64 138.029 114.958 138.445C114.334 138.827 113.885 139.318 113.61 139.917C113.336 140.516 113.236 141.165 113.319 141.864C113.402 142.563 113.66 143.27 114.101 143.977C114.542 144.684 115.049 145.233 115.64 145.615C116.222 145.998 116.846 146.206 117.503 146.223C118.16 146.239 118.801 146.056 119.425 145.665C120.215 145.175 120.747 144.551 121.005 143.785C121.271 143.02 121.18 142.238 120.739 141.448L120.589 141.207L117.844 142.904L116.996 141.531L121.296 138.861L124.657 144.276L123.426 145.041L122.378 143.735C122.353 144.326 122.17 144.933 121.829 145.549C121.488 146.164 120.955 146.697 120.24 147.138C119.325 147.703 118.385 147.995 117.42 148.02C116.455 148.036 115.532 147.787 114.667 147.271C113.801 146.755 113.053 145.998 112.445 145.008C111.822 144.01 111.472 143.012 111.397 142.005C111.314 141.007 111.514 140.067 111.98 139.202H111.971Z" fill="white"/>
<path d="M126.064 127.873L127.179 129.154L122.895 132.897L125.016 135.326L128.551 132.24L129.633 133.48L126.097 136.566L128.318 139.111L132.752 135.235L133.867 136.516L127.994 141.657L120.324 132.889L126.047 127.881L126.064 127.873Z" fill="white"/>
<path d="M132.894 120.128L134.183 121.234L131.838 123.963L139.382 130.443L138.135 131.89L130.59 125.41L128.252 128.139L126.963 127.032L132.894 120.128Z" fill="white"/>
<path d="M134.881 117.133L139.065 119.704L141.894 115.095L137.709 112.525L138.708 110.895L148.648 117L147.65 118.631L143.341 115.985L140.513 120.594L144.822 123.239L143.823 124.87L133.883 118.764L134.881 117.133Z" fill="white"/>
<path d="M142.658 101.694L144.222 102.343L142.043 107.6L145.021 108.84L146.817 104.506L148.34 105.138L146.543 109.472L149.662 110.762L151.917 105.321L153.481 105.97L150.494 113.182L139.738 108.724L142.65 101.694H142.658Z" fill="white"/>
<path d="M145.372 93.3423C145.812 92.8266 146.345 92.4689 146.969 92.2692C147.593 92.0696 148.266 92.0696 148.99 92.2443C149.747 92.4273 150.354 92.7933 150.829 93.334C151.303 93.8747 151.569 94.5069 151.644 95.2306L156.735 93.9496L156.227 96.0126L151.594 97.1439L150.97 99.6644L155.071 100.679L154.614 102.534L143.309 99.7476L144.407 95.2888C144.598 94.5069 144.922 93.8498 145.363 93.334L145.372 93.3423ZM149.972 96.8195C150.138 96.154 150.088 95.58 149.822 95.0975C149.556 94.6151 149.123 94.2989 148.524 94.1492C147.925 93.9995 147.393 94.0827 146.935 94.3822C146.478 94.6816 146.17 95.1724 146.004 95.8379L145.397 98.2918L149.364 99.2735L149.972 96.8195Z" fill="white"/>
<path d="M1.83824 78.8382C1.26471 79.4118 1 80.1176 1 81C1 81.8824 1.26471 82.6324 1.83824 83.1618C2.41177 83.7353 3.16177 84 4.04412 84C4.92647 84 5.63235 83.7353 6.25 83.1618C6.82353 82.6324 7.13236 81.8824 7.13236 81C7.13236 80.1176 6.82353 79.4118 6.25 78.8382C5.63235 78.3088 4.92647 78 4.04412 78C3.16177 78 2.41177 78.3088 1.83824 78.8382Z" fill="white"/>
<path d="M150.838 73.8382C150.265 74.4118 150 75.1176 150 76C150 76.8824 150.265 77.6324 150.838 78.1618C151.412 78.7353 152.162 79 153.044 79C153.926 79 154.632 78.7353 155.25 78.1618C155.824 77.6324 156.132 76.8824 156.132 76C156.132 75.1176 155.824 74.4118 155.25 73.8382C154.632 73.3088 153.926 73 153.044 73C152.162 73 151.412 73.3088 150.838 73.8382Z" fill="white"/>
</svg>
